<?xml version="1.0" standalone="no"?><!DOCTYPE svg PUBLIC "-//W3C//DTD SVG 1.1//EN" "http://www.w3.org/Graphics/SVG/1.1/DTD/svg11.dtd"><svg t="1693097605830" class="icon" viewBox="0 0 1024 1024" version="1.1" xmlns="http://www.w3.org/2000/svg" p-id="3953" xmlns:xlink="http://www.w3.org/1999/xlink" width="32" height="32"><path d="M512 936a424.1 424.1 0 0 1-165.05-814.66 424.1 424.1 0 0 1 330.1 781.33A421.38 421.38 0 0 1 512 936z m0-768c-189.68 0-344 154.32-344 344s154.32 344 344 344 344-154.32 344-344-154.32-344-344-344z" fill="#494848" p-id="3954"></path><path d="M349.75 349.75m57.15 0l210.2 0q57.15 0 57.15 57.15l0 210.2q0 57.15-57.15 57.15l-210.2 0q-57.15 0-57.15-57.15l0-210.2q0-57.15 57.15-57.15Z" fill="#494848" p-id="3955"></path></svg>