<?xml version="1.0" standalone="no"?><!DOCTYPE svg PUBLIC "-//W3C//DTD SVG 1.1//EN" "http://www.w3.org/Graphics/SVG/1.1/DTD/svg11.dtd"><svg t="1693097517753" class="icon" viewBox="0 0 1024 1024" version="1.1" xmlns="http://www.w3.org/2000/svg" p-id="1923" xmlns:xlink="http://www.w3.org/1999/xlink" width="32" height="32"><path d="M512 0C229.234286 0 0 229.234286 0 512s229.234286 512 512 512 512-229.234286 512-512S794.765714 0 512 0z m0 914.285714C289.828571 914.285714 109.714286 734.171429 109.714286 512S289.828571 109.714286 512 109.714286s402.285714 180.114286 402.285714 402.285714-180.114286 402.285714-402.285714 402.285714z" p-id="1924"></path><path d="M684.868571 469.942857L456.834286 299.154286C424.468571 280.457143 384 303.817143 384 341.2v341.6c0 37.382857 40.468571 60.742857 72.834286 42.057143L684.868571 554.057143c32.365714-18.697143 32.365714-65.417143 0-84.114286z" p-id="1925"></path></svg>