<?xml version="1.0" standalone="no"?>
<!DOCTYPE svg PUBLIC "-//W3C//DTD SVG 1.1//EN" "http://www.w3.org/Graphics/SVG/1.1/DTD/svg11.dtd" >
<!--
2013-9-30: Created.
-->
<svg>
<metadata>
Created by iconfont
</metadata>
<defs>

<font id="mw-iconfont" horiz-adv-x="1024" >
  <font-face
    font-family="mw-iconfont"
    font-weight="500"
    font-stretch="normal"
    units-per-em="1024"
    ascent="896"
    descent="-128"
  />
    <missing-glyph />
    
    <glyph glyph-name="x" unicode="x" horiz-adv-x="1001"
d="M281 543q-27 -1 -53 -1h-83q-18 0 -36.5 -6t-32.5 -18.5t-23 -32t-9 -45.5v-76h912v41q0 16 -0.5 30t-0.5 18q0 13 -5 29t-17 29.5t-31.5 22.5t-49.5 9h-133v-97h-438v97zM955 310v-52q0 -23 0.5 -52t0.5 -58t-10.5 -47.5t-26 -30t-33 -16t-31.5 -4.5q-14 -1 -29.5 -0.5
t-29.5 0.5h-32l-45 128h-439l-44 -128h-29h-34q-20 0 -45 1q-25 0 -41 9.5t-25.5 23t-13.5 29.5t-4 30v167h911zM163 247q-12 0 -21 -8.5t-9 -21.5t9 -21.5t21 -8.5q13 0 22 8.5t9 21.5t-9 21.5t-22 8.5zM316 123q-8 -26 -14 -48q-5 -19 -10.5 -37t-7.5 -25t-3 -15t1 -14.5
t9.5 -10.5t21.5 -4h37h67h81h80h64h36q23 0 34 12t2 38q-5 13 -9.5 30.5t-9.5 34.5q-5 19 -11 39h-368zM336 498v228q0 11 2.5 23t10 21.5t20.5 15.5t34 6h188q31 0 51.5 -14.5t20.5 -52.5v-227h-327z" />
    

    
    <glyph glyph-name="block-diannao" unicode="&#45345;" d="M671.744 106.496q0-11.264-6.656-20.48t-18.944-9.216l-243.712 1.024q-11.264-1.024-17.92 9.216t-6.656 19.456q0 8.192 6.144 18.432t18.432 10.24h75.776v64.512h-340.992q-33.792 0-54.784 18.944t-20.992 51.712v508.928q0 32.768 19.968 49.152t52.736 16.384h755.712q32.768 0 52.224-17.92t19.456-47.616v-508.928q0-31.744-17.92-49.664t-53.76-17.92h-318.464v-68.608h73.728q11.264 0 18.944-8.704t7.68-18.944zM890.88 732.16h-768v-359.424h768v359.424zM566.272 329.728h-87.040v-77.824h87.040v77.824z"  horiz-adv-x="1024" />

    
    <glyph glyph-name="block-shouji" unicode="&#45331;" d="M820.409 98.772q0-25.197-10.079-46.866t-27.717-38.299-41.323-26.205-50.898-9.575h-357.795q-27.213 0-50.898 9.575t-41.323 26.205-27.717 38.299-10.079 46.866v675.276q0 25.197 10.079 47.37t27.717 38.803 41.323 26.205 50.898 9.575h357.795q27.213 0 50.898-9.575t41.323-26.205 27.717-38.803 10.079-47.37v-675.276zM738.772 725.669h-455.559v-577.512h455.559v577.512zM510.992 119.937q-21.165 0-36.787-15.118t-15.622-37.291q0-21.165 15.622-36.787t36.787-15.622q22.173 0 37.291 15.622t15.118 36.787q0 22.173-15.118 37.291t-37.291 15.118zM591.622 811.339q0 8.063-5.039 12.598t-11.087 4.535h-128q-5.039 0-10.583-4.535t-5.543-12.598 5.039-12.598 11.087-4.535h128q6.047 0 11.087 4.535t5.039 12.598z"  horiz-adv-x="1024" />

    
    <glyph glyph-name="block-print" unicode="&#45332;" d="M287.744 632.832q-27.648-1.024-54.272-1.024h-84.992q-18.432 0-37.376-6.144t-33.28-18.944-23.552-32.768-9.216-46.592v-77.824h933.888v41.984q0 16.384-0.512 30.72t-0.512 18.432q0 13.312-5.12 29.696t-17.408 30.208-32.256 23.040-50.688 9.216h-136.192v-99.328h-448.512v99.328zM977.92 394.24v-53.248q0-23.552 0.512-53.248t0.512-59.392-10.752-48.64-26.624-30.72-33.792-16.384-32.256-4.608q-14.336-1.024-30.208-0.512t-30.208 0.512h-32.768l-46.080 131.072h-449.536l-45.056-131.072h-64.512q-20.48 0-46.080 1.024-25.6 0-41.984 9.728t-26.112 23.552-13.824 30.208-4.096 30.72v171.008h932.864zM166.912 329.728q-12.288 0-21.504-8.704t-9.216-22.016 9.216-22.016 21.504-8.704q13.312 0 22.528 8.704t9.216 22.016-9.216 22.016-22.528 8.704zM323.584 202.752q-8.192-26.624-14.336-49.152-5.12-19.456-10.752-37.888t-7.68-25.6-3.072-15.36 1.024-14.848 9.728-10.752 22.016-4.096h373.76q23.552 0 34.816 12.288t2.048 38.912q-5.12 13.312-9.728 31.232t-9.728 35.328q-5.12 19.456-11.264 39.936h-376.832zM344.064 586.752v233.472q0 11.264 2.56 23.552t10.24 22.016 20.992 15.872 34.816 6.144h192.512q31.744 0 52.736-14.848t20.992-53.76v-232.448h-334.848z"  horiz-adv-x="1024" />

    
    <glyph glyph-name="block-tixing" unicode="&#45333;" d="M660.48 23.552q6.144 0-3.584-15.36t-29.696-33.792-47.104-33.792-57.856-15.36q-27.648 0-53.248 15.36t-45.056 33.792-29.696 33.792-6.144 15.36h272.384zM914.432 110.592q7.168-9.216 6.656-17.92t-4.608-14.848-10.24-9.728-12.288-3.584h-747.52q-14.336 0-20.992 11.776t4.608 29.184q17.408 30.72 40.96 68.608t44.544 81.408 36.352 92.16 15.36 101.888q0 51.2 14.336 92.16t37.376 71.68 53.248 52.224 62.976 32.768q-16.384 26.624-16.384 55.296 0 41.984 28.672 70.656t70.656 28.672 70.656-28.672 28.672-70.656q0-14.336-4.096-28.16t-11.264-25.088q34.816-11.264 66.048-32.768t54.272-53.248 36.864-72.704 13.824-91.136q0-51.2 15.36-100.864t36.864-94.208 45.568-81.408 43.52-63.488zM478.208 753.664q0-16.384 11.264-28.16t27.648-11.776h2.048q16.384 1.024 27.648 12.288t11.264 27.648q0 17.408-11.264 28.672t-28.672 11.264-28.672-11.264-11.264-28.672z"  horiz-adv-x="1024" />

    
    <glyph glyph-name="block-bianjiwenjian" unicode="&#45334;" d="M746.028 705.916q-11.242 0-18.906 7.665t-12.774 17.884-7.665 20.95-2.555 17.884v125.701h2.044q9.198 0 17.373-2.044t19.928-9.709 28.615-21.461 42.411-36.279q27.593-24.527 43.944-41.389t25.038-28.615 10.731-19.928 2.044-14.307v-16.351h-150.228zM1063.856 224.575q3.066-8.176 4.088-20.439t-10.22-23.505q-5.11-5.11-9.198-9.709t-7.154-7.665q-4.088-4.088-7.154-6.132l-86.866 85.844q6.132 5.11 13.796 12.263t12.774 11.242q12.263 11.242 26.571 9.709t23.505-6.643q10.22-5.11 21.972-17.884t17.884-27.082zM703.106 129.533q22.483 0 37.812 12.263l-198.259-206.435h-282.060q-19.417 0-42.411 11.242t-42.922 29.637-33.214 42.411-13.285 49.565v695.952q0 21.461 9.709 44.966t26.571 42.411 38.323 31.681 44.966 12.774h391.409v-127.745q0-19.417 6.132-41.9t18.906-41.389 33.214-31.681 49.054-12.774h149.206v-338.267l-140.008-145.118q11.242 16.351 11.242 35.768 0 26.571-18.906 45.477t-45.477 18.906h-383.234q-26.571 0-44.966-18.906t-18.395-45.477 18.395-44.966 44.966-18.395h383.234zM319.872 512.766q-26.571 0-44.966-18.906t-18.395-45.477 18.395-44.966 44.966-18.395h383.234q26.571 0 45.477 18.395t18.906 44.966-18.906 45.477-45.477 18.906h-383.234zM705.15 0.766l38.834 38.834q15.329 15.329 33.725 34.236t36.79 37.301q43.944 43.944 99.13 98.108l85.844-85.844-169.645-169.645q-14.307-14.307-24.016-24.527t-10.731-11.242q-5.11-4.088-11.242-8.687t-12.263-7.665-18.906-7.665-26.060-8.687-25.549-7.154-18.395-4.088q-12.263-2.044-16.351 3.066t-2.044 17.373q1.022 6.132 4.088 18.395t7.154 25.038 7.665 24.016 5.621 15.329q6.132 13.285 16.351 23.505z"  horiz-adv-x="1069" />

    
    <glyph glyph-name="block-bingtu" unicode="&#45335;" d="M959.488 356.352v-3.072q0-86.016-32.768-162.304t-89.088-132.608-132.608-89.088-162.304-32.768-162.304 32.768-132.608 89.088-89.088 132.608-32.768 162.304q0 73.728 24.576 140.8t67.584 120.32 101.888 91.136 128.512 53.248v-313.344q0-35.84 7.68-60.928t25.088-40.448 45.568-22.016 69.12-6.656zM551.936 385.024q-11.264 0-25.088 7.168t-13.824 30.72v369.664q0 17.408 8.704 25.088t32.256 7.68q10.24 0 41.472-1.536t74.752-11.776 95.232-33.28 102.912-67.072q36.864-30.72 56.32-66.56t28.672-67.584 10.752-54.784 1.536-27.136q0-15.36-7.168-26.624t-26.624-16.384q-7.168-2.048-36.864-7.68t-70.656-13.312-87.040-15.872-86.016-14.848-68.096-11.264-31.232-4.608z"  horiz-adv-x="1024" />

    
    <glyph glyph-name="block-shengqi" unicode="&#45336;" d="M512 832.512q93.184 0 174.592-35.328t142.336-95.744 96.256-142.336 35.328-174.080q0-93.184-35.328-174.592t-96.256-142.336-142.336-96.256-174.592-35.328q-92.16 0-174.080 35.328t-142.336 96.256-95.744 142.336-35.328 174.592q0 92.16 35.328 174.080t95.744 142.336 142.336 95.744 174.080 35.328zM247.808 621.568q13.312-43.008 28.672-78.848 13.312-30.72 29.696-59.904t33.792-37.376q17.408-9.216 36.864-1.536t35.84 20.992q18.432 15.36 37.888 38.912zM749.568 83.968q8.192 3.072 12.8 8.192t6.144 11.264 1.536 11.776-1.024 7.68q-2.048 8.192-5.12 11.264-12.288 28.672-35.84 51.712t-56.32 39.936-73.728 26.112-88.064 9.216-89.6-10.24-76.288-28.672-57.856-43.008-33.28-53.248q-1.024-1.024-1.024-3.072-2.048-6.144 1.024-20.48t18.432-18.432q23.552 29.696 57.344 53.248 29.696 20.48 73.728 36.864t105.472 16.384 107.008-16.384 75.264-36.864q34.816-23.552 59.392-53.248zM680.96 445.44q17.408 8.192 33.792 37.376t29.696 59.904q15.36 35.84 28.672 78.848l-202.752-117.76q19.456-23.552 37.888-38.912 16.384-13.312 35.84-20.992t36.864 1.536z"  horiz-adv-x="1024" />

    
    <glyph glyph-name="block-yonghu" unicode="&#45337;" d="M541.637 896q29.637 0 58.762-6.643t54.675-17.884 45.477-25.549 31.17-28.615q26.571-32.703 38.834-72.048t17.373-75.114q5.11-40.878 5.11-82.778 7.154-5.11 11.242-13.285 4.088-7.154 6.643-18.395t0.511-27.593q-2.044-21.461-8.687-34.236t-14.818-19.928q-9.198-8.176-19.417-11.242-5.11-17.373-10.22-32.703-5.11-13.285-11.752-26.060t-14.818-19.928q-19.417-15.329-31.681-26.060t-16.351-36.279q-3.066-15.329-2.044-31.17t8.687-31.681 23.505-30.148 44.455-25.549q25.549-10.22 55.697-18.395t58.762-18.906 50.587-26.571 31.17-43.433q5.11-16.351 7.665-40.367t2.555-48.543-3.577-45.988-10.731-32.703q-5.11-7.154-29.126-14.307t-59.273-13.796-78.691-11.752-87.377-8.687-84.311-5.621-70.004-2.044-68.982 2.044-81.246 5.621-83.289 8.176-75.114 9.709-57.23 10.22-29.637 10.22q-10.22 8.176-15.84 50.076t4.599 108.327q5.11 37.812 30.148 57.741t58.251 31.681 68.982 20.95 63.361 26.571q21.461 13.285 32.703 25.549t16.351 24.527 5.11 25.549-1.022 29.637q-2.044 23.505-16.351 37.301t-31.681 28.104q-8.176 7.154-14.307 19.928t-11.242 26.060q-5.11 15.329-10.22 32.703-7.154 2.044-14.307 7.154-6.132 5.11-13.285 14.307t-12.263 26.571q-6.132 17.373-4.599 31.681t5.621 24.527q4.088 11.242 13.285 21.461-1.022 38.834 4.088 77.669 4.088 32.703 14.818 70.515t32.192 67.449q19.417 28.615 43.433 46.499t49.054 28.104 50.076 13.796 48.543 3.577z"  horiz-adv-x="1024" />

    
    <glyph glyph-name="block-biaoqing" unicode="&#45344;" d="M512 831.488q92.16 0 174.080-35.328t142.336-95.744 95.744-142.336 35.328-174.080q0-93.184-35.328-174.592t-95.744-142.336-142.336-95.744-174.080-34.816q-93.184 0-174.592 34.816t-142.336 95.744-96.256 142.336-35.328 174.592q0 92.16 35.328 174.080t96.256 142.336 142.336 95.744 174.592 35.328zM673.792 609.28q-29.696 0-50.176-24.576t-20.48-59.392q0-35.84 20.48-60.416t50.176-24.576 50.176 24.576 20.48 60.416q0 34.816-20.48 59.392t-50.176 24.576zM342.016 607.232q-28.672 0-48.64-24.576t-19.968-59.392q0-35.84 19.968-59.904t48.64-24.064 49.152 24.064 20.48 59.904q0 34.816-20.48 59.392t-49.152 24.576zM516.096 51.2q54.272 0 102.912 19.456t87.552 53.248 66.048 78.848 38.4 96.256v5.12q0 8.192-6.144 14.848t-15.36 6.656h-547.84q-9.216 0-16.896-6.656t-5.632-14.848q2.048-10.24 3.072-14.336t2.048-6.144q13.312-49.152 40.96-91.648t65.024-73.728 84.48-49.152 101.376-17.92z"  horiz-adv-x="1024" />

    
    <glyph glyph-name="block-youjian" unicode="&#45186;" d="M80.896 605.184q-11.264 8.192-13.824 12.8t-2.56 13.824v18.432q0 23.552 12.8 38.4t42.496 14.848l785.408-1.024q31.744 0 44.032-13.312t12.288-36.864v-20.48q0-9.216-2.048-12.288t-14.336-14.336l-389.12-224.256q-9.216-5.12-23.552-11.776t-19.456-6.656q-11.264 0-41.984 19.456l-16.384 10.24q-17.408 9.216-45.056 24.576t-62.464 35.328-71.68 41.472q-86.016 49.152-194.56 111.616zM923.648 527.36q17.408 11.264 27.648 9.216t10.24-16.384v-357.376q0-34.816-7.68-54.784t-21.504-30.208-32.256-12.8-39.936-2.56h-684.032q-34.816 0-56.32 9.216t-33.792 23.552-17.408 33.28-5.12 38.4v344.064q0 19.456 9.728 24.576t24.064-5.12q6.144-4.096 31.232-19.968t54.272-33.792 53.76-33.28 29.696-18.432q12.288-8.192 11.776-16.896t-5.632-17.92q-4.096-7.168-11.776-23.552t-16.384-33.792-16.384-33.28-11.776-23.040-2.56-12.288 5.12-7.68 9.216-1.536 10.752 7.168q3.072 3.072 14.848 16.896t26.112 29.696 27.136 30.208 16.896 18.432q5.12 5.12 15.36 11.264t19.456 0q6.144-3.072 20.48-12.288t30.72-19.456l32.768-22.528q16.384-10.24 28.672-17.408 12.288-8.192 25.088-10.24t24.064-0.512 20.992 4.608 14.848 6.144 21.504 12.8 35.328 21.504 35.84 22.016 23.040 14.336q10.24 6.144 18.432 4.096t16.384-10.24q3.072-3.072 14.848-16.896t25.6-30.72 25.6-32.256 16.896-21.504 11.264-6.656 10.752 3.072 6.144 9.728-2.56 13.312q-2.048 3.072-8.192 18.432l-13.312 32.768q-7.168 18.432-14.336 35.328t-11.264 24.064q-8.192 16.384-8.704 24.576t10.752 15.36q2.048 1.024 23.040 14.848t47.104 30.208 50.176 31.744 33.28 20.48z"  horiz-adv-x="1024" />

    
    <glyph glyph-name="block-xiangyou" unicode="&#45201;" d="M285.578 663.458q-14.279 14.279-21.418 32.637t-7.139 37.227 7.139 36.717 21.418 32.127q28.558 29.578 68.335 29.578t68.335-29.578l378.39-381.45q14.279-12.239 20.398-30.598t5.1-38.757-9.179-40.287-22.438-34.167l-372.271-375.331q-28.558-29.578-68.335-29.578t-68.335 29.578q-14.279 14.279-21.418 32.127t-7.139 36.717 7.139 37.227 21.418 32.637l308.016 311.076z"  horiz-adv-x="1024" />

    
    <glyph glyph-name="xiangzuo" unicode="&#45202;" d="M799.618 664.478l-308.016-312.096 308.016-312.096q14.279-14.279 21.418-32.637t7.139-37.227-7.139-36.717-21.418-32.127q-28.558-29.578-68.335-29.578t-68.335 29.578l-372.271 375.331q-14.279 14.279-22.438 34.167t-9.179 40.287 5.1 39.267 20.398 31.108l378.39 381.45q28.558 28.558 68.335 28.558t68.335-28.558q14.279-14.279 21.418-32.637t7.139-37.227-7.139-36.717-21.418-32.127z"  horiz-adv-x="1024" />

    
    <glyph glyph-name="block-xiangshang" unicode="&#45203;" d="M854.016 156.672l-313.344 309.248-313.344-309.248q-14.336-14.336-32.768-21.504t-37.376-7.168-36.864 7.168-32.256 21.504q-29.696 28.672-29.696 68.608t29.696 68.608l376.832 373.76q14.336 14.336 34.304 22.528t40.448 9.216 39.424-5.12 31.232-20.48l382.976-379.904q28.672-28.672 28.672-68.608t-28.672-68.608q-14.336-14.336-32.768-21.504t-37.376-7.168-36.864 7.168-32.256 21.504z"  horiz-adv-x="1024" />

    
    <glyph glyph-name="block-xiangxia" unicode="&#45204;" d="M857.088 671.744q28.672 28.672 69.12 28.672t69.12-28.672q29.696-28.672 29.696-68.608t-29.696-68.608l-382.976-380.928q-12.288-14.336-30.72-19.968t-38.912-4.608-40.448 8.704-34.304 22.016l-376.832 374.784q-29.696 28.672-29.696 68.608t29.696 68.608q14.336 14.336 32.256 21.504t36.864 7.168 37.376-7.168 32.768-21.504l313.344-309.248z"  horiz-adv-x="1026" />

    
    <glyph glyph-name="block-map" unicode="&#45205;" d="M240.64 556.032q6.144-23.552 13.824-51.2t17.408-56.32 22.016-56.832 26.624-52.736v-403.456l-256-63.488v640zM317.44 590.848q0 5.12-0.512 9.728t-0.512 9.728q0 46.080 17.92 86.016t48.64 70.144 71.68 47.616 88.064 17.408 88.064-17.408 71.68-47.616 48.64-70.144 17.92-86.016v-12.288q0-6.144-1.024-12.288-6.144-54.272-24.064-103.936t-45.568-95.744-63.488-88.576-76.8-81.408q-7.168-7.168-15.36-7.168t-15.36 7.168q-41.984 38.912-77.824 81.92t-63.488 90.112-45.568 97.792-23.040 104.96zM542.72 704.512q-20.48 0-37.888-7.168t-30.208-19.968-20.48-30.208-7.68-36.864 7.68-36.864 20.48-30.208 30.208-19.968 37.888-7.168 38.4 7.168 30.72 19.968 20.48 30.208 7.68 36.864-7.68 36.864-20.48 30.208-30.72 19.968-38.4 7.168zM384 256q29.696-32.768 57.856-59.392t50.688-47.104q26.624-23.552 50.176-41.984 12.288 10.24 27.648 23.552 13.312 11.264 30.72 28.672t39.936 38.912v-326.656l-257.024 63.488v320.512zM960.512 576.512v-641.024l-256-63.488v392.192q6.144 6.144 11.776 12.8t11.776 12.8q20.48 22.528 37.888 53.76t31.232 66.56 24.576 70.656 18.944 66.048z"  horiz-adv-x="1024" />

    
    <glyph glyph-name="block-weiruan" unicode="&#45206;" d="M454.656 32.768l-1.024 343.040 455.68-2.048v-409.6zM453.632 752.64l455.68 68.608v-378.88h-455.68v310.272zM65.536 376.832l325.632-1.024v-336.896l-325.632 52.224v285.696zM65.536 442.368v251.904l325.632 52.224v-304.128h-325.632z"  horiz-adv-x="1024" />

    
    <glyph glyph-name="block-pingguo" unicode="&#45207;" d="M836.608 220.16q41.984-59.392 96.256-76.8-23.552-72.704-74.752-151.552-78.848-118.784-155.648-118.784-28.672 0-84.992 19.456-52.224 19.456-91.136 19.456t-86.016-20.48q-49.152-19.456-80.896-19.456-92.16 0-181.248 156.672-89.088 154.624-89.088 304.128 0 138.24 67.584 226.304 69.632 88.064 172.032 88.064 22.528 0 50.176-5.632t57.344-20.992q31.744-17.408 52.224-24.064t31.744-6.656q13.312 0 40.96 6.144t55.296 22.528q29.696 16.384 51.2 24.576t44.032 8.192q71.68 0 129.024-38.912 30.72-20.48 62.464-60.416-47.104-40.96-68.608-71.68-39.936-57.344-39.936-124.928 0-74.752 41.984-135.168zM630.784 698.368q-35.84-33.792-65.536-44.032-10.24-3.072-26.112-5.632t-36.352-4.608q1.024 90.112 47.104 155.648t151.552 90.112q2.048-10.24 3.072-14.336v-11.264q0-36.864-17.408-82.944-18.432-45.056-56.32-82.944z"  horiz-adv-x="1024" />

    
    <glyph glyph-name="block-yaopin" unicode="&#45208;" d="M304.128 524.288q-14.336 0-21.504 5.12t-10.24 12.288q-4.096 8.192-4.096 18.432v67.584q0 19.456 7.68 29.184t16.896 14.848q11.264 5.12 24.576 5.12h396.288q13.312 0 24.576-5.12 9.216-5.12 16.896-14.848t7.68-29.184v-67.584q0-10.24-4.096-18.432-3.072-7.168-9.728-12.288t-20.992-5.12h-423.936zM837.632-47.104q0-22.528-8.192-40.96-7.168-15.36-22.016-27.648t-42.496-12.288h-497.664q-28.672 0-43.008 12.288t-21.504 27.648q-8.192 18.432-9.216 40.96v382.976q0 33.792 12.288 48.128t22.528 24.576l72.704 67.584h443.392l58.368-67.584q10.24-10.24 22.528-24.576t12.288-48.128v-382.976zM677.888 217.088h-107.52v108.544h-109.568v-108.544h-107.52v-109.568h107.52v-107.52h109.568v107.52h107.52v109.568z"  horiz-adv-x="1024" />

    
    <glyph glyph-name="block-gouwuche" unicode="&#45209;" d="M954.656 706.094c-33.188 9.469-67.781-9.75-77.281-42.938l-4.906-17.156h-582.938l-8.781 70.25c-3.906 31.281-30.5 54.75-62.031 54.75h-156.25c-34.531 0-62.5-27.969-62.5-62.5s27.969-62.5 62.5-62.5h101.063l55.656-445.25c3.906-31.281 30.5-54.75 62.031-54.75h531.25c27.906 0 52.438 18.5 60.094 45.344l125 437.5c9.469 33.188-9.75 67.781-42.938 77.281zM500 396v62.5h125v-62.5h-125zM625 333.5v-62.5h-125v62.5h125zM500 521v62.5h125v-62.5h-125zM297.375 583.5h140.125v-62.5h-132.313l-7.813 62.5zM313 458.5h124.5v-62.5h-116.688l-7.813 62.5zM328.625 333.5h108.875v-62.5h-101.063l-7.813 62.5zM765.344 271h-77.844v62.5h95.719l-17.844-62.5zM801.063 396h-113.563v62.5h131.438l-17.844-62.5zM836.781 521h-149.281v62.5h167.156l-17.844-62.5zM250-10.25c0 51.781 41.969 93.75 93.75 93.75s93.75-41.969 93.75-93.75c0-51.781-41.969-93.75-93.75-93.75-51.781 0-93.75 41.969-93.75 93.75zM625-10.25c0 51.781 41.969 93.75 93.75 93.75s93.75-41.969 93.75-93.75c0-51.781-41.969-93.75-93.75-93.75-51.781 0-93.75 41.969-93.75 93.75z"  horiz-adv-x="1000" />

    
    <glyph glyph-name="block-shuru" unicode="&#45312;" d="M861.429 639.353c2.413-5.362 4.346-11.615 5.809-18.764 1.492-7.147 2.233-14.593 2.233-22.337 0-7.743-1.488-15.482-4.469-23.225-2.988-7.745-7.755-15.192-14.291-22.337-7.149-7.151-13.55-13.402-19.212-18.762-5.659-5.361-10.572-10.127-14.743-14.297-4.762-4.764-9.232-8.936-13.402-12.507l-167.080 167.071c7.146 6.552 15.636 14.444 25.461 23.679 9.828 9.232 18.021 16.525 24.573 21.889 8.34 6.551 16.979 11.167 25.914 13.85 8.933 2.678 17.72 3.87 26.355 3.571 8.637-0.3 16.974-1.639 25.020-4.021 8.040-2.382 15.036-5.061 20.991-8.042 12.515-6.557 26.362-18.019 41.552-34.397 15.185-16.377 26.954-33.505 35.29-51.372v0zM165.405 203.349c3.573 3.573 11.914 12.063 25.016 25.464 13.106 13.403 29.488 29.93 49.141 49.587l329.701 329.682 167.078-167.968-192.098-192.092-71.478-72.37c-23.827-23.229-45.271-44.526-64.332-63.883-19.060-19.359-34.848-35.29-47.355-47.799-12.51-12.508-19.956-19.656-22.338-21.443-5.953-5.36-12.808-11.018-20.548-16.973-7.743-5.961-15.783-10.724-24.125-14.297-8.336-4.171-20.55-9.231-36.635-15.189-16.081-5.956-32.908-11.763-50.481-17.422-17.569-5.662-34.247-10.575-50.037-14.746-15.784-4.164-27.545-6.849-35.29-8.037-16.086-1.788-26.805 0.596-32.167 7.147-5.36 6.549-6.849 17.568-4.468 33.058 1.192 8.338 4.024 20.397 8.491 36.184 4.468 15.785 9.232 32.163 14.292 49.14 5.066 16.973 9.978 32.61 14.745 46.904 4.765 14.294 8.634 24.123 11.614 29.484 3.575 8.337 7.596 15.933 12.062 22.783 4.469 6.853 10.874 14.445 19.21 22.785v0zM463.329 34.84h79.902v-79.549h-79.902v79.549zM625.669 34.84h79.902v-79.549h-79.902v79.549zM788.656 34.84h79.902v-79.549h-79.902v79.549z"  horiz-adv-x="1024" />

    
    <glyph glyph-name="outline-sousuo" unicode="&#41248;" d="M954.114-29.592l-283.864 283.866c54.503 61.2 87.639 141.844 87.639 230.227 0 191.312-155.067 346.378-346.338 346.378-191.291 0-346.379-155.067-346.379-346.378 0-191.251 155.088-346.339 346.379-346.339 88.155 0 168.604 32.962 229.74 87.207l283.893-283.893c7.79-7.812 20.579-7.652 28.571 0.361 8.014 7.991 8.173 20.778 0.36 28.571zM106.091 484.502c0 168.434 137.024 305.458 305.459 305.458 168.414 0 305.419-137.024 305.419-305.458 0-168.414-137.005-305.419-305.419-305.419-168.434 0.001-305.459 137.005-305.459 305.419z"  horiz-adv-x="1024" />

    
    <glyph glyph-name="block-liebiao" unicode="&#45330;" d="M485.158 460.255c0-31.929-26.124-58.054-58.054-58.054h-206.334c-31.929 0-58.054 26.124-58.054 58.054v215.118c0 31.929 26.124 58.054 58.054 58.054h206.335c31.929 0 58.054-26.124 58.054-58.054v-215.118zM485.158 91.935c0-31.93-26.124-58.054-58.054-58.054h-206.334c-31.929 0-58.054 26.124-58.054 58.054v215.113c0 31.93 26.124 58.054 58.054 58.054h206.335c31.929 0 58.054-26.124 58.054-58.054v-215.113zM862.259 460.255c0-31.929-26.124-58.054-58.054-58.054h-206.346c-31.93 0-58.054 26.124-58.054 58.054v215.118c0 31.929 26.124 58.054 58.054 58.054h206.346c31.93 0 58.054-26.124 58.054-58.054v-215.118zM862.261 91.935c0-31.93-26.124-58.054-58.054-58.054h-206.347c-31.93 0-58.054 26.124-58.054 58.054v215.113c0 31.93 26.124 58.054 58.054 58.054h206.347c31.93 0 58.054-26.124 58.054-58.054v-215.113z"  horiz-adv-x="1024" />

    
    <glyph glyph-name="block-xiazai1" unicode="&#45314;" d="M399.024 543.139c0 0-54.635 52.551-128.771 9.63-66.335-40.971-54.622-115.96-54.622-115.96s-147.354-28.627-147.354-178.856c3.308-150.017 160.033-151.526 160.033-151.526l312.249 0.473-144.872 130.951 80.276-0.872 0.013 158.667 102.916 0.7 0.737-158.931 78.429-1.115-117.5-129.873h264.27c0 0 145.861-0.149 166.346 142.562 9.757 156.079-140.982 186.842-140.982 186.842s17.153 231.047-194.527 257.386c-181.44 18.532-236.641-150.078-236.641-150.078z"  horiz-adv-x="1024" />

    
    <glyph glyph-name="block-accessory" unicode="&#45315;" d="M697.83 568.952l-64.952 64.922-324.808-324.742c-53.814-53.792-53.814-141.048 0-194.844 53.804-53.792 141.060-53.792 194.874 0l389.772 389.708c89.712 89.662 89.712 235.062 0 324.726-89.666 89.704-235.114 89.704-324.784 0l-409.228-409.178c-0.29-0.304-0.612-0.576-0.876-0.846-125.102-125.096-125.102-327.856 0-452.906 125.054-125.056 327.868-125.056 452.988 0 0.274 0.274 0.516 0.566 0.82 0.876l0.032-0.034 279.332 279.292-64.986 64.92-279.332-279.262c-0.296-0.268-0.562-0.57-0.846-0.844-89.074-89.058-233.98-89.058-323.076 0-89.062 89.042-89.062 233.922 0 322.978 0.304 0.304 0.604 0.582 0.888 0.846l-0.046 0.060 409.28 409.166c53.71 53.738 141.142 53.738 194.884 0 53.712-53.734 53.712-141.148 0-194.84l-389.77-389.7c-17.936-17.922-47.054-17.922-64.972 0-17.894 17.886-17.894 47.032 0 64.92l324.806 324.782z"  horiz-adv-x="1024" />

    
    <glyph glyph-name="block-erweima" unicode="&#45187;" d="M152.075 772.488c101.717 0 203.435 0 305.152 0 31.031-3.073 23.552-57.696 23.552-93.184 0-63.743 0-105.756 0-168.96 0-36.722 6.915-81.73-17.408-92.16-15.84-6.793-58.352-2.048-78.848-2.048-56.272 0-102.013 0-161.792 0-37.401 0-88.47-8.927-94.208 23.552 0 103.083 0 206.165 0 309.248 4.182 11.519 11.538 19.864 23.552 23.552zM194.059 702.856c0-73.387 0-146.773 0-220.16 73.387 0 146.773 0 220.16 0 0 74.411 0 148.821 0 223.232-73.045 0-146.091 0-219.136 0-1.193-0.172-1.112-1.619-1.024-3.072zM561.675 772.488c101.717 0 203.435 0 305.152 0 12.448-4.618 21.001-13.133 23.552-27.648 0-100.352 0-200.705 0-301.056-2.792-12.51-9.325-23.197-21.504-26.624-19.905-5.6-52.978-1.024-76.8-1.024-56.127 0-102.149 0-156.672 0-23.627 0-58.642-4.977-77.824 1.024-27.078 8.472-19.456 61.329-19.456 98.304 0 49.115 0 106.446 0 157.696-0 42.692-9.371 93.363 23.552 99.328zM603.659 702.856c0-73.387 0-146.773 0-220.16 73.387 0 146.773 0 220.16 0 0 74.411 0 148.821 0 223.232-73.045 0-146.091 0-219.136 0-1.193-0.172-1.112-1.619-1.024-3.072zM294.411 638.344c30.662 5.787 54.775-14.931 55.296-43.008 0.687-37.026-37.129-57.366-66.56-41.984-33.67 17.597-31.454 76.93 11.264 84.992zM704.011 638.344c72.224 13.493 70.839-100.887 0-89.088-45.082 7.508-46.537 80.393 0 89.088zM455.179 0.392c-100.693 0-201.386 0-302.080 0-12.541 3.843-21.012 11.756-24.576 24.576 0 102.741 0 205.483 0 308.224 2.983 9.019 9.868 19.542 20.48 22.528 20.045 5.64 52.787 1.024 76.8 1.024 55.19 0 105.184 0 156.672 0 23.155 0 56.852 5.168 77.824-1.024 28.372-8.376 20.48-60.376 20.48-97.28 0-56.73 0-105.122 0-162.816-0-39.831 8.577-91.676-25.6-95.232zM194.059 287.112c0-73.388 0-146.773 0-220.16 73.387 0 146.773 0 220.16 0 0 74.411 0 148.821 0 223.232-73.045 0-146.091 0-219.136 0-1.193-0.172-1.112-1.619-1.024-3.072zM890.379 329.096c0-28.672 0-57.344 0-86.016-2.389-29.014-0.342-62.463-1.024-93.184-72.704 0-145.408 0-218.112 0 0 16.725 0 33.451 0 50.176-20.481 2.388-45.396 0.342-67.584 1.024-2.389-64.854-0.341-134.143-1.024-200.704-13.312 0-26.624 0-39.936 0-34.338 6.882-24.576 58.408-24.576 99.328 0 57.079 0 104.042 0 158.72 0 23.865-4.83 59.643 1.024 78.848 6.985 22.913 37.275 19.456 67.584 19.456 51.241 0 96.892 0 148.48 0 0-45.397 0-90.795 0-136.192 22.869 0 45.739 0 68.608 0 0.682 45.056-1.365 92.842 1.024 136.192 33.015 1.954 63.597 1.473 65.536-27.648zM299.531 223.624c32.74 3.624 59.805-27.842 47.104-62.464-17.605-47.99-101.778-29.953-86.016 30.72 4.357 16.771 16.942 29.312 38.912 31.744zM744.971 0.392c-24.576 0-49.152 0-73.728 0 0.682 26.284-1.364 55.295 1.024 79.872 24.235 0 48.469 0 72.704 0 0-26.624 0-53.248 0-79.872zM890.379 80.264c0-17.408 0-34.816 0-52.224-2.847-14.561-11.361-23.455-24.576-27.648-17.408 0-34.816 0-52.224 0 0.682 26.284-1.364 55.295 1.024 79.872 25.259 0 50.517 0 75.776 0z"  horiz-adv-x="1024" />

    
    <glyph glyph-name="block-gonggao" unicode="&#45316;" d="M464.258-32.83c-30.464 27.47-62.711 56.139-96.758 86.002-34.041 29.858-65.695 57.333-94.964 82.415-34.041 28.668-68.082 57.035-102.129 85.104-6.57-0.596-13.14-0.897-19.706-0.897-5.377-0.595-11.050-0.892-17.026-0.892h-15.226c-16.129 0-29.265 4.925-39.417 14.781-10.154 9.855-15.233 21.648-15.233 35.384l-0 225.752h0.897l-0.897 0.897c0 16.723 5.227 30.458 15.678 41.21 10.45 10.748 23.443 16.123 38.972 16.123h51.062c54.948 46.586 104.82 88.39 149.614 125.417 19.111 16.124 37.925 31.801 56.438 47.031 18.518 15.232 35.24 29.115 50.17 41.657 14.935 12.541 27.476 22.995 37.629 31.354 10.153 8.362 16.422 13.438 18.814 15.231 17.918 13.141 32.4 19.111 43.445 17.917 11.051-1.194 19.712-6.57 25.985-16.127 6.268-9.553 10.598-21.198 12.987-34.937 2.388-13.736 3.583-26.276 3.583-37.623v-725.628c0-11.347-2.087-23.442-6.268-36.283-4.182-12.838-10.604-22.992-19.26-30.459-8.662-7.467-19.562-10.597-32.704-9.404-13.135 1.192-28.366 9.849-45.684 25.977zM753.624 499.296c12.541-17.316 22.545-34.787 30.013-52.407 7.462-17.615 11.199-38.971 11.199-64.053 0-23.887-3.885-45.387-11.65-64.501-7.764-19.111-17.615-36.429-29.561-51.957-4.777-6.57-9.856-12.391-15.233-17.47-5.371-5.074-12.243-7.611-20.603-7.611-10.752 0-19.859 3.88-27.322 11.643-7.467 7.765-11.199 17.021-11.199 27.773 0 4.777 0.891 9.553 2.685 14.334h-0.897c2.988 6.57 6.57 12.838 10.752 18.809 4.181 5.975 8.21 12.094 12.095 18.367 3.88 6.269 7.164 13.438 9.85 21.499 2.691 8.063 4.034 17.769 4.034 29.115 0 10.752-1.343 20.156-4.034 28.219-2.685 8.062-5.971 15.379-9.85 21.949-3.885 6.57-7.914 12.838-12.095 18.813-4.182 5.971-7.467 12.244-9.856 18.809-1.794 4.181-2.685 8.958-2.685 14.334 0 10.751 3.731 20.008 11.199 27.77 7.462 7.765 16.569 11.645 27.322 11.645 8.36 0 15.233-2.538 20.603-7.611 5.378-5.078 10.457-10.9 15.234-17.471zM803.794 97.066c-7.171-5.376-15.529-8.062-25.087-8.062-11.942 0-22.244 4.331-30.904 12.988-8.662 8.66-12.992 18.962-12.992 30.908 0 13.14 5.079 24.186 15.233 33.144 0.595 0.599 1.193 1.045 1.789 1.347 0.601 0.298 1.195 0.744 1.794 1.343l0.897 0.897c16.723 11.346 32.253 24.784 46.582 40.313 14.335 15.529 26.876 32.4 37.629 50.614 10.752 18.215 19.111 37.623 25.082 58.229 5.975 20.603 8.958 41.954 8.958 64.051 0 44.792-11.346 85.705-34.041 122.732s-51.067 67.486-85.108 91.373c-12.541 8.958-18.814 20.904-18.814 35.833 0 11.946 4.331 22.247 12.992 30.908 8.661 8.661 18.963 12.988 30.904 12.988 10.154 0 19.112-3.281 26.876-9.85 22.1-15.529 42.707-33.594 61.819-54.2 19.111-20.603 35.533-42.999 49.273-67.188 13.735-24.186 24.484-50.015 32.247-77.49 7.765-27.47 11.65-55.841 11.65-85.104 0-29.863-3.885-58.526-11.65-86.001-7.764-27.471-18.661-53.449-32.698-77.936-14.033-24.487-30.607-47.031-49.718-67.638-19.114-20.603-40.019-38.67-62.713-54.197z"  horiz-adv-x="1024" />

    
    <glyph glyph-name="block-jingshi" unicode="&#45317;" d="M527.521 847.441c-246.732 0-446.746-200.006-446.746-446.727s200.015-446.727 446.746-446.727 446.746 200.006 446.746 446.727-200.015 446.727-446.746 446.727zM527.521 105.185c-31.453 0-56.95 25.497-56.95 56.948s25.498 56.948 56.95 56.948 56.95-25.497 56.95-56.948-25.498-56.948-56.95-56.948zM584.472 346.812c0-31.451-25.498-56.948-56.95-56.948s-56.95 25.497-56.95 56.948l0 243.050c0 31.45 25.498 56.947 56.95 56.947s56.95-25.497 56.95-56.948l-0-243.049z"  horiz-adv-x="1024" />

    
    <glyph glyph-name="outline-yuanxuanzhong" unicode="&#41239;" d="M511.998-63.905c-246.981 0-447.924 200.934-447.924 447.906s200.943 447.906 447.924 447.906c246.983 0 447.925-200.934 447.925-447.906 0-246.972-200.942-447.906-447.925-447.906zM511.998 790.878c-224.342 0-406.893-182.543-406.893-406.878 0-224.333 182.552-406.878 406.893-406.878 224.343 0 406.894 182.545 406.894 406.878-0 224.334-182.552 406.878-406.894 406.878zM493.807 242.845l-174.257 141.757 25.884 31.813 143.726-116.914 186.998 210.95 30.692-27.246z"  horiz-adv-x="1024" />

    
    <glyph glyph-name="outline-upload" unicode="&#41238;" d="M927.334 362.742v-326.334h-830.667v326.334h-29.667v-356h890v356zM501.831 704.69v-484.965h29.203v484.995l174.205-174.205 20.976 20.975-209.768 209.768-209.781-209.768 20.989-20.975z"  horiz-adv-x="1024" />

    
    <glyph glyph-name="outline-download" unicode="&#41236;" d="M930.2 362.647v-332.847h-835.4v332.847h-29.8v-362.647h895v362.647zM512.008 218.987l210.709 210.71-21.070 21.070-174.987-174.988v492.174h-29.335v-492.145l-174.958 174.959-21.084-21.070 189.655-189.64z"  horiz-adv-x="1024" />

    
    <glyph glyph-name="block-pengyouquan" unicode="&#45318;" d="M679.171 497.018v272.485c0 0-133.339 71.481-288.99 16.366l288.99-288.851zM704.415 336.715v421.537c0 0 157.63-71.434 202.052-244.963l-202.052-176.574zM619.614 214.188l290.99 273.648c0 0 51.488-83.708-25.293-273.648h-265.697zM471.029 179.493h393.014c0 0-47.445-128.595-217.255-181.688l-175.759 181.688zM342.736 266.304v-256.18c0 0 102.072-65.366 276.878-21.478l-276.878 277.658zM115.37 253.054l199.075 178.62v-406.207c0 0.001-120.272 41.75-199.075 227.586zM110.325 281.623c0 0-45.538 146.936 18.154 274.554h273.811l-291.966-274.554zM145.682 584.817c0 0 57.603 130.594 214.21 191.87l186.894-191.87h-401.103z"  horiz-adv-x="1024" />

    
    <glyph glyph-name="block-xinlang" unicode="&#45319;" d="M711.213 391.572c-32.422 6.35-16.674 23.904-16.674 23.904s31.72 52.642-6.282 90.916c-47.084 47.402-161.495-6.032-161.495-6.032-43.696-13.646-32.128 6.236-25.938 40.081 0 39.877-13.557 107.364-129.98 67.51-116.289-40.081-216.152-180.499-216.152-180.499-69.452-93.312-60.234-165.43-60.234-165.43 17.33-159.203 185.312-202.899 315.991-213.247 137.458-10.891 322.995 47.717 379.253 168.037 56.258 120.537-45.954 168.232-78.489 174.76zM420.616 93.645c-136.463-6.417-246.788 62.493-246.788 154.212 0 91.796 110.324 165.428 246.788 171.754 136.554 6.326 247.105-50.315 247.105-141.954 0-91.695-110.551-177.777-247.105-184.012zM393.415 359.152c-137.278-16.178-121.417-145.639-121.417-145.639s-1.401-41.017 36.804-61.894c80.319-43.786 163.011-17.261 204.81 37.054 41.798 54.348 17.261 186.543-120.197 170.479zM358.779 177.422c-25.644-3.028-46.272 11.883-46.272 33.449 0 21.51 18.322 44.012 43.989 46.702 29.417 2.824 48.576-14.257 48.576-35.834 0.001-21.51-20.763-41.38-46.293-44.316zM439.686 246.839c-8.677-6.53-19.362-5.625-23.948 2.214-4.791 7.637-2.983 19.882 5.783 26.321 10.19 7.614 20.764 5.424 25.35-2.213 4.586-7.841 1.311-19.588-7.185-26.323zM778.044 447.627c11.070 0 20.47 8.247 22.051 19.002 0.181 0.791 0.293 1.491 0.293 2.395 16.765 151.782-123.495 125.664-123.495 125.664-12.45 0-22.437-10.144-22.437-22.797 0-12.472 9.987-22.616 22.437-22.616 100.743 22.412 78.512-79.032 78.512-79.032-0-12.561 10.168-22.615 22.639-22.615zM761.686 712.535c-48.485 11.432-98.371 1.582-112.334-1.107-1.085-0.113-2.077-1.13-3.073-1.333-0.496-0.090-0.814-0.61-0.814-0.61-13.758-3.909-23.836-16.764-23.836-31.924 0-18.097 14.573-32.964 32.716-32.964 0 0 17.646 2.396 29.62 7.095 11.885 4.813 112.333 3.592 162.221-80.772 27.202-61.567 11.974-102.777 10.053-109.398 0 0-6.484-15.995-6.484-31.765 0-18.165 14.596-29.597 32.624-29.597 15.071 0 27.745 2.078 31.451 27.744h0.18c53.57 179.775-65.543 264.253-152.324 284.632z"  horiz-adv-x="1024" />

    
    <glyph glyph-name="block-weixin" unicode="&#45320;" d="M664.25 527.458c10.015 0 19.892-0.733 29.673-1.796-26.648 122.81-159.358 214.078-310.826 214.078-169.353 0-308.086-114.233-308.086-259.274 0-83.708 46.165-152.46 123.282-205.785l-30.809-91.73 107.689 53.455c38.558-7.537 69.46-15.309 107.924-15.309 9.663 0 19.231 0.471 28.753 1.226-6.025 20.366-9.522 41.723-9.522 63.862 0.001 133.181 115.58 241.272 261.922 241.272zM498.629 610.126c23.2 0 38.557-15.12 38.557-38.062 0-22.846-15.357-38.156-38.557-38.156-23.107 0-46.261 15.31-46.261 38.156-0 22.942 23.154 38.062 46.261 38.062zM283.016 533.909c-23.107 0-46.403 15.31-46.403 38.156 0 22.942 23.296 38.062 46.403 38.062 23.082 0 38.463-15.12 38.463-38.062 0-22.847-15.381-38.156-38.463-38.156zM945.448 289.849c0 121.888-123.258 221.237-261.684 221.237-146.578 0-262.016-99.349-262.016-221.237 0-122.065 115.437-221.201 262.016-221.201 30.666 0 61.617 7.609 92.424 15.263l84.514-45.787-23.179 76.171c61.856 45.929 107.925 106.803 107.925 175.554zM598.803 328.006c-15.332 0-30.808 15.097-30.808 30.502 0 15.191 15.475 30.477 30.808 30.477 23.296 0 38.558-15.286 38.558-30.477 0-15.405-15.263-30.502-38.558-30.502zM768.251 328.006c-15.213 0-30.595 15.097-30.595 30.502 0 15.191 15.381 30.477 30.595 30.477 23.107 0 38.558-15.286 38.558-30.477 0-15.405-15.451-30.502-38.558-30.502z"  horiz-adv-x="1024" />

    
    <glyph glyph-name="msnui-pos" unicode="&#45369;" d="M839.185 513.605q0-9.375-0.469-17.813t-1.406-17.813q-8.438-77.813-34.219-149.531t-65.156-137.813-90.938-127.031-111.563-117.188q-8.438-10.313-21.563-10.313-14.063 0-22.5 10.313-60 56.25-112.031 118.125t-91.875 129.375-65.625 140.156-33.281 151.406q0 7.5-0.469 14.063t-0.469 14.063q0 65.625 25.781 123.75t69.844 101.25 103.594 68.438 127.031 25.313 126.563-25.313 103.125-68.438 69.844-101.25 25.781-123.75zM513.872 367.355q30.938 0 58.125 11.719t47.344 31.406 31.875 46.406 11.719 56.719-11.719 56.719-31.875 46.406-47.344 31.406-58.125 11.719-58.125-11.719-47.813-31.406-32.344-46.406-11.719-56.719 11.719-56.719 32.344-46.406 47.813-31.406 58.125-11.719z"  horiz-adv-x="1024" />

    
    <glyph glyph-name="rili" unicode="&#41284;" d="M710.845 605.5c24.266 0 45.346 19.694 45.346 44.002l-0 199.969c0 24.309-21.081 44.024-45.346 44.024-24.286 0-43.958-19.715-43.958-44.024v-199.969c0-24.309 19.672-44.002 43.958-44.002zM623.079 782.657h-222.565v-66.469h222.565v66.469zM883.475 782.657h-82.718v-66.1h85.882c25.261 0 46.58-21.362 46.58-46.645v-153.823l-842.821-0v153.823c0 25.283 21.319 46.645 46.58 46.645h86.445v66.1h-82.587c-64.043 0-116.429-52.473-116.429-116.624v-676.343c0-64.131 50.457-116.602 114.5-116.602l744.568-0c64.019 0 116.428 52.471 116.428 116.602v676.343c0 64.151-52.41 116.624-116.428 116.624zM933.218-13.735c0-25.283-21.319-46.644-46.58-46.644h-749.66c-25.261 0-46.58 21.362-46.58 46.644l0 463.591h842.82v-463.591zM266.948 250.256c36.852 0 66.707 29.919 66.707 66.836 0 36.897-29.855 66.816-66.707 66.816-36.83 0-66.707-29.919-66.707-66.816 0-36.917 29.876-66.836 66.707-66.836zM511.223 250.256c36.831 0 66.707 29.919 66.707 66.836 0 36.897-29.875 66.816-66.707 66.816-36.852 0-66.707-29.919-66.707-66.816-0-36.917 29.855-66.836 66.707-66.836zM265.757 5.894c36.852 0 66.706 29.919 66.706 66.816 0 36.918-29.854 66.837-66.706 66.837-36.831 0-66.707-29.919-66.707-66.837-0-36.896 29.875-66.816 66.707-66.816zM511.223 5.894c36.831 0 66.707 29.919 66.707 66.816 0 36.918-29.875 66.837-66.707 66.837-36.852 0-66.707-29.919-66.707-66.837-0-36.896 29.855-66.816 66.707-66.816zM755.15 250.256c36.832 0 66.708 29.919 66.708 66.836 0 36.897-29.876 66.816-66.708 66.816-36.852 0-66.707-29.919-66.707-66.816 0.001-36.917 29.855-66.836 66.707-66.836zM311.513 605.5c24.265 0 45.346 19.694 45.346 44.002v199.969c0 24.309-21.080 44.024-45.346 44.024-24.285 0-43.959-19.715-43.959-44.024v-199.969c0-24.309 19.674-44.002 43.959-44.002z"  horiz-adv-x="1024" />

    
    <glyph glyph-name="block-youxiu" unicode="&#45321;" d="M983.181 589.502l-447.204 244.066-497.107-238.34 497.107-280.788 447.204 275.062zM216.623 394.72v-278.961c0 0 109.461-96.567 319.624-96.567 188.995 0 280.6 92.834 280.6 92.834l-0 276.665-284.537-162.459-315.687 168.488zM874.897 277.201h58.559v234.486l-58.559-52.289v-182.197z"  horiz-adv-x="1024" />

    
    <glyph glyph-name="block-camrea" unicode="&#45328;" d="M506.516 490.81c-73.123 0-132.432-58.954-132.432-131.674s59.309-131.676 132.432-131.676c73.147 0 132.456 58.956 132.456 131.676s-59.308 131.674-132.456 131.674zM934.575 596.803c0 25.916-21.17 46.944-47.254 46.944h-165.399l-23.638 46.993c0 0-21.148 46.992-47.232 46.992l-283.565-0c-26.083 0-47.23-46.992-47.23-46.992l-23.638-46.993-165.401 0c-26.082 0-47.253-21.028-47.253-46.944v-516.869c0-25.963 21.171-46.993 47.253-46.993h756.104c26.083 0 47.254 21.030 47.254 46.993v65.789l-0.403-10.016 0.403 170.121-0 290.975zM506.516 183.557c-97.497 0-176.554 78.651-176.554 175.579 0 96.974 79.058 175.58 176.554 175.58 97.522 0 176.577-78.606 176.577-175.58 0-96.928-79.054-175.579-176.577-175.579zM786.096 498.26c-20.149 0-36.455 16.33-36.455 36.455 0 20.125 16.306 36.455 36.455 36.455 20.126 0 36.455-16.33 36.455-36.455 0-20.125-16.329-36.455-36.455-36.455z"  horiz-adv-x="1024" />

    
    <glyph glyph-name="block-ydanxuan" unicode="&#45329;" d="M512.01862883 890.60573411c-279.79057949 0-506.60573411-226.81515463-506.60573411-506.60573411s226.81515463-506.60573411 506.60573411-506.60573411 506.60573411 226.81515463 506.60573412 506.60573411S791.80920832 890.60573411 512.01862883 890.60573411zM512.01862883-7.092530059999945c-215.99536128 0-391.09253006 175.09833273-391.09253006 391.09253006S296.02443264 775.09369401 512.01862883 775.09369401s391.09369401-175.09833273 391.09369402-391.09369401S728.01399011-7.092530059999945 512.01862883-7.092530059999945z"  horiz-adv-x="1024" />

    
    <glyph glyph-name="block-btnweixuan" unicode="&#45313;" d="M832 768c38.4 0 64-25.6 64-64v-640c0-38.4-25.6-64-64-64h-640c-38.4 0-64 25.6-64 64v640c0 38.4 25.6 64 64 64h640M832 832h-640c-70.4 0-128-57.6-128-128v-640c0-70.4 57.6-128 128-128h640c70.4 0 128 57.6 128 128v640c0 70.4-57.6 128-128 128v0z"  horiz-adv-x="1024" />

    
    <glyph glyph-name="block-yuebao" unicode="&#45200;" d="M511.979-95.056c-300.633 0-426.734 107.535-426.734 328.527 0 183.079 142.992 374.138 316.335 434.413h220.799c173.35-60.275 316.335-251.333 316.335-434.413-0.001-220.992-126.102-328.527-426.737-328.527zM630.242 268.086v0.073c19.951 0.105 36.089 16.314 36.089 36.281 0 19.987-16.137 36.177-36.089 36.303v0.086h-73.195c0.143 0.816-0.097 1.542-0.025 2.359l85.783 87.691c13.993 15.764 6.873 28.799-7.269 43.092-14.231 14.365-37.489 17.378-48.989 4.859l-73.762-78.629-79.675 79.676c-10.082 10.073-29.696 6.791-43.81-7.324-14.126-14.134-17.397-33.764-7.324-43.837l81.486-81.467c-1.525-1.95-2.512-4.115-3.104-6.42h-66.225v-0.068c-0.062 0-0.126 0-0.186 0-20.057 0-36.319-16.245-36.319-36.319 0-20.037 16.262-36.316 36.319-36.316 0.061 0 0.124 0.036 0.186 0.036v-0.073h72.591v-36.175h-72.591v-0.106c-0.062 0-0.126 0-0.186 0-20.057 0-36.319-16.245-36.319-36.317 0-20.039 16.262-36.319 36.319-36.319 0.061 0 0.124 0.036 0.186 0.036v-0.036h72.591v-36.566h0.753c-0.569-2.836-0.895-5.798-0.895-8.83 0-25.075 20.322-45.398 45.396-45.398 25.076 0 45.398 20.323 45.398 45.398 0 3.031-0.33 5.994-0.896 8.83h0.425v36.566l73.338 0.036c19.951 0.125 36.089 16.315 36.089 36.284 0 19.984-16.137 36.175-36.089 36.299v0.125h-73.338v36.174h73.337zM684.487 812.89l-7.632-9.54c-0.169-0.177-0.286-0.39-0.454-0.567l-64.548-80.686h-217.906l-64.426 80.545c-0.479 0.462-0.789 1.028-1.232 1.525l-6.978 8.724 1.231 2.466c-0.593 2.235-1.383 4.416-1.383 6.828 0 11.562 7.271 21.331 17.45 25.305l0.861 1.721c0 0 89.262 17.857 163.43 18.159 77.62 0.319 163.431-18.159 163.431-18.159l0.88-1.738c10.115-4.009 17.324-13.762 17.324-25.287 0-2.377-0.781-4.487-1.347-6.667l1.3-2.627z"  horiz-adv-x="1024" />

    
    <glyph glyph-name="block-gupiao" unicode="&#45193;" d="M891.014-23.275l-751.154-0.017c-17.975 0.017-34.445 16.537-34.486 34.487v212.937c0 34.589 17.37 52.689 35.606 35.348l101.585-79.955c13.648-11.687 34.159-27.584 45.575-13.724l116.429 141.367c11.418 13.859 32.013 33.427 45.77 21.858l100.187-87.228c13.751-11.553 42.225-31.726 53.415-17.666l249.285 300.427c33.671 38.437 71.223 29.419 71.223-17.673 0-35.093 0-495.69 0-495.69-0.001-17.95-15.469-34.487-33.436-34.47zM598.671 345.696c-9.228-11.821-22.852-19.364-37.754-20.931-14.929-1.769-29.807 3.013-41.266 12.646l-113.010 95.177-113.506-149.821c-9.069-11.939-22.574-19.718-37.46-21.489-2.163-0.251-4.337-0.386-6.509-0.386-12.654 0-25.015 4.38-34.917 12.496l-99.058 81.049c-23.584 19.282-27.061 54.054-7.772 77.639 19.274 23.617 54.038 27.069 77.614 7.772l54.761-44.794 113.987 150.478c9.142 12.075 22.817 19.838 37.839 21.521 15.13 1.65 30.093-2.913 41.662-12.612l113.625-95.709 146.807 184.141-40.912 33.983c-29.030 24.106-22.582 50.224 14.331 58.028l212.767 45.004c36.906 7.805 48.322-10.305 25.37-40.263l-306.597-393.925z"  horiz-adv-x="1024" />

    
    <glyph glyph-name="block-game" unicode="&#45192;" d="M742.678-58.858h-458.868c-136.844 0-247.78 124.638-247.78 278.374 0 153.755 110.937 278.374 247.78 278.374h458.868c136.847 0 247.78-124.62 247.78-278.374 0-153.737-110.933-278.374-247.78-278.374zM361.748 259.285h-51.763v60.602c0 20.229-15.827 36.61-35.349 36.61-19.52 0-35.35-16.381-35.35-36.61v-60.602h-60.596c-20.222 0-36.612-15.827-36.612-35.35 0-19.52 16.391-35.349 36.612-35.349h60.596v-51.764c0-20.212 15.829-36.608 35.35-36.608 19.523 0 35.349 16.396 35.349 36.608v51.764h51.763c20.222 0 36.611 15.829 36.611 35.349 0 19.523-16.389 35.35-36.611 35.35zM645.803 259.285c-19.52 0-35.35-15.827-35.35-35.35 0-19.52 15.83-35.349 35.35-35.349 19.523 0 35.35 15.829 35.35 35.349 0 19.523-15.827 35.35-35.35 35.35zM743.012 356.497c-19.519 0-35.348-15.829-35.348-35.349 0-19.524 15.829-35.35 35.348-35.35 19.522 0 35.35 15.826 35.35 35.35 0 19.52-15.828 35.349-35.35 35.349zM743.012 162.074c-19.519 0-35.348-15.827-35.348-35.349s15.829-35.348 35.348-35.348c19.522 0 35.35 15.826 35.35 35.348s-15.828 35.349-35.35 35.349zM840.225 259.285c-19.523 0-35.35-15.827-35.35-35.35 0-19.52 15.827-35.349 35.35-35.349 19.521 0 35.349 15.829 35.349 35.349 0 19.523-15.828 35.35-35.349 35.35zM550.775 551.054c-35.746 0-81.718-0.043-81.718-0.043s0 3.099 0 54.758c0 197.407 209.964 41.996 209.964 171.481 0 30.965 0 47.621 0 47.621l81.666-0.094c0 0 0-3.857 0-54.758 0.001-236.779-224.324-17.243-209.911-218.965z"  horiz-adv-x="1024" />

    
    <glyph glyph-name="block-jizhang" unicode="&#45191;" d="M741.939 800.246h-415.984c-131.539 0-157.866-30.505-157.985-155.152 4.099 0.146 4.099-0.608 4.099-0.608h-3.466c-34.467 0-44.053-28.16-44.053-62.877 0-34.724 9.586-62.874 44.053-62.874l-0.231 1.043v-87.646l0.231 5.419c-34.467 0-44.053-28.151-44.053-62.867 0-34.733 9.586-62.877 44.053-62.877l-0.231 6.385v-96.411l0.231 8.834c-34.467 0-44.053-28.144-44.053-62.858 0-34.733 2.26-70.631 36.728-70.631 0 0 0 0 6.445 0.068 0.933-109.403 25.781-129.585 158.233-129.585h415.984c115.763 0 153.895 27.271 153.895 136.519v541.113c0 132.162-34.573 155.007-153.895 155.007zM676.716 335.722c22.632 0 34.427-12.154 35.478-35.059 1.053-22.938-10.835-37.147-38.995-37.043-16.098 0.034-92.892 1.985-92.892 1.985v-78.881c0-22.923-21.73-26.91-44.509-26.91-22.774 0-43.138 3.987-43.138 26.91v78.881h-96.409c-22.586 0-35.059 12.137-35.059 35.059 0 15.236-0.298 5.153-0.205 6.283 1.739 21.329 13.781 28.776 35.264 28.776h96.41v52.588h-96.41c-16.597 0-32.969 3.989-32.969 41.88 0 22.929 13.943 37 36.728 37h73.452l-50.122 46.383-23.419 23.588c-15.185 15.296-15.526 39.304-2.038 55.61 0.805 0.976 1.139 2.191 2.038 3.115 16.109 16.212 42.197 16.212 58.305 0l3.074-3.115 75.003-75.527 78.069 78.642c16.108 16.212 42.188 16.212 58.287 0 16.1-16.21 16.1-42.522 0-58.725l-70.648-69.971h73.456c22.775 0 36.727-14.071 36.727-37 0-22.93-12.702-41.88-35.478-41.88h-96.41v-52.588h96.41z"  horiz-adv-x="1024" />

    
    <glyph glyph-name="block-kuaiqiang" unicode="&#45190;" d="M847.423 537.168c0 38.73-32.757 70.12-73.17 70.12h-59.448c-1.046 109.878-92.693 198.661-205.689 198.661-112.997 0-204.624-88.784-205.688-198.661h-53.548c-40.404 0-73.168-31.39-73.168-70.12l-48.778-502.499c0-38.694 32.765-70.103 73.168-70.103h621.931c40.412 0 73.169 31.407 73.169 70.103l-48.78 502.499zM420.607 93.11l48.778 140.219-73.167-0 207.311 198.679-60.974-151.938h85.361l-207.309-186.959zM339.746 607.288c1.054 90.327 76.421 163.263 169.37 163.263 92.94 0 168.314-72.937 169.369-163.263h-338.74z"  horiz-adv-x="1024" />

    
    <glyph glyph-name="block-wodebaozhang" unicode="&#45189;" d="M471.721 90.598c0-35.14-29.217-63.772-65.127-63.772-35.951 0-65.166 28.629-65.166 63.772 0 26.407-21.929 47.838-48.9 47.838-27.004 0-48.891-21.431-48.891-47.838 0-87.913 73.103-159.451 162.957-159.451 89.813 0 162.919 71.537 162.919 159.451v229.205h-97.792v-229.205zM542.094 746.998l-5.135 24.304c0 12.657-10.503 22.889-23.466 22.889-12.91 0-23.393-10.23-23.393-22.889l-7.198-24.304c-233.685-10.799-412.464-186.22-412.464-402.243h23.172c14.709 39.508 64.125 68.746 123.479 68.746 59.344 0 108.811-29.237 123.52-68.746h48.415c14.709 39.508 64.146 68.746 123.469 68.746 59.355 0 108.81-29.237 123.541-68.746h48.395c14.67 39.508 64.146 68.746 123.5 68.746 59.343 0 108.811-29.237 123.5-68.746h23.172c-0.003 215.376-179.762 390.556-412.508 402.243z"  horiz-adv-x="1024" />

    
    <glyph glyph-name="block-dengdai" unicode="&#45188;" d="M511.674 832.555c-247.54 0-448.208-200.651-448.208-448.208 0-247.521 200.668-448.208 448.208-448.208s448.208 200.687 448.208 448.208c0 247.557-200.668 448.208-448.208 448.208zM672.569 154.153c-14.571-14.701-38.499-14.701-53.063 0l-132.487 133.206c-9.893 9.957-8.999 23.817-8.999 44.901 0 21.12-4.78 265.212-4.78 265.212 0 20.936 16.753 37.897 37.414 37.897 20.663 0 37.414-16.961 37.414-37.897v-265.212c0-1.094 124.792-124.819 124.792-124.819 14.563-14.699 14.271-38.553-0.292-53.288z"  horiz-adv-x="1024" />

    
    <glyph glyph-name="block-tongxunlu" unicode="&#45136;" d="M814.142 807.127h-598.689c-48.376 0-87.607-39.249-87.607-87.59v-113.185h17.523c19.285 0 35.042-17.219 35.042-36.505 0-19.25-15.757-36.505-35.042-36.505l-17.523-0v-109.513h17.523c19.285 0 35.042-17.219 35.042-36.504 0-19.251-15.757-36.504-35.042-36.504l-17.523 0v-109.514h17.523c19.285 0 35.042-17.218 35.042-36.505 0-19.464-15.757-36.502-35.042-36.502l-17.523-0v-113.151c0-48.376 39.232-87.626 87.607-87.626h598.689c48.359 0 80.301 39.249 80.301 87.626l-0 664.391c-0.001 48.34-31.943 87.59-80.301 87.59zM696.733 112.041c-42.050-24.348-157.336 40.497-246.888 196.070-89.549 155.609-87.982 288.259-45.738 312.608 36.434 21.033 84.986 62.030 120.030-17.683 35.042-79.888 4.385-91.296-33.296-113.007-26.273-15.257 2.994-79.603 36.112-137.213 33.117-57.644 74.096-115.289 100.387-100.069 37.681 21.892 62.884 42.922 114.255-27.482 51.337-70.48-8.429-92.012-44.863-113.224z"  horiz-adv-x="1024" />

    
    <glyph glyph-name="block-danwei" unicode="&#45129;" d="M921.66 9.886l-840.090 0.425c0 0-90.418-4.057-18.761 63.969 18.829 10.309 40.889 19.91 65.632 28.643-6.166 13.879-9.717 29.371-9.717 45.791 0 58.646 44.015 106.176 98.318 106.176 54.303 0 98.318-47.531 98.318-106.176 0-1.248-0.133-2.463-0.173-3.693 6.338 0.821 12.735 1.625 19.201 2.368v549.18c0 36.084 26.701 64.676 62.899 64.676h376.887c36.198 0 61.463-28.593 61.463-64.676v-579.987c43.991-12.33 81.826-27.018 111.415-43.548 107.844-71.911-25.396-63.147-25.396-63.147zM544.59 615.721c0 18.039-14.231 32.338-32.337 32.338h-64.676c-18.103 0-32.337-14.299-32.337-32.338v-88.937c0-18.033 22.318-32.338 40.423-32.338h56.591c18.107 0 32.337 14.305 32.337 32.338v88.937zM544.59 381.261c0 18.047-14.231 32.337-32.337 32.337h-64.676c-18.103 0-32.337-14.29-32.337-32.337v-88.933c0-18.033 22.318-32.338 40.423-32.338h56.591c18.107 0 32.337 14.305 32.337 32.338v88.933zM754.794 615.721c0 18.039-14.235 32.338-32.337 32.338h-64.679c-18.103 0-32.338-14.299-32.338-32.338v-88.937c0-18.033 22.321-32.338 40.423-32.338h56.594c18.103 0 32.337 14.305 32.337 32.338v88.937zM754.794 381.261c0 18.047-14.235 32.337-32.337 32.337h-64.679c-18.103 0-32.338-14.29-32.338-32.337v-88.933c0-18.033 22.321-32.338 40.423-32.338h56.594c18.103 0 32.337 14.305 32.337 32.338v88.933z"  horiz-adv-x="1024" />

    
    <glyph glyph-name="block-fuwuchuangb" unicode="&#45128;" d="M630.748 237.27l-124.399 65.537-122.989-68.319 22.118 142.050-101.146 99.298 138.088 22.253 60.479 129.743 63.215-128.333 138.518-19.128-99.023-101.547 25.139-141.554zM834.869 803.037h-650.493c-26.302 0-44.896-28.578-44.896-55.669v-728.389c0-70.796 66.574-56.774 90.654-45.838l237.71 108.061c24.082 10.937 63.177 11.089 87.334 0.381l253.316-112.214c24.137-10.746 77.128-5.793 77.128 56.812v721.187c0 27.092-24.454 55.669-50.753 55.669z"  horiz-adv-x="1024" />

    
    <glyph glyph-name="outline-browser" unicode="&#41235;" d="M981.759 584.628c-25.675 60.713-62.432 115.235-109.248 162.051-46.816 46.806-101.338 83.563-162.051 109.248-62.197 26.299-128.21 39.776-196.239 40.062-0.737 0-1.474 0.010-2.221 0.010s-1.484-0.010-2.221-0.010c-68.029-0.287-134.043-13.763-196.239-40.062-60.713-25.685-115.235-62.442-162.051-109.248-46.816-46.816-83.573-101.338-109.248-162.051-26.585-62.872-40.073-129.643-40.073-198.46 0-68.828 13.487-135.598 40.073-198.46 25.675-60.713 62.432-115.235 109.248-162.051s101.338-83.573 162.051-109.248c62.197-26.309 128.21-39.776 196.239-40.062 0.737 0 1.474-0.010 2.221-0.010s1.484 0.010 2.221 0.010c68.029 0.287 134.043 13.753 196.239 40.062 60.713 25.675 115.235 62.432 162.051 109.248s83.573 101.338 109.248 162.051c26.585 62.862 40.073 129.632 40.073 198.46-0 68.817-13.487 135.588-40.073 198.46zM180.439 717.73c43.061 43.071 93.213 76.881 149.045 100.499 19.156 8.094 38.701 14.879 58.595 20.302-24.825-24.866-47.553-57.469-67.405-97.173-12.72-25.439-23.915-53.089-33.483-82.509-44.135 11.768-84.576 27.036-119.665 45.445 4.206 4.554 8.514 9.036 12.914 13.436zM79.94 568.685c15.749 37.228 36.020 71.918 60.559 103.671 39.295-21.561 85.057-39.295 135.158-52.711-17.263-65.348-27.087-137.757-28.591-213.011h-203.515c2.374 56.087 14.582 110.507 36.389 162.051zM140.489 99.98c-24.529 31.753-44.8 66.454-60.549 103.671-21.807 51.544-34.015 105.963-36.389 162.051h203.515c1.504-75.244 11.318-147.643 28.591-212.991-50.091-13.416-95.843-31.16-135.169-52.731zM329.483-45.892c-55.832 23.618-105.984 57.428-149.045 100.489-4.4 4.4-8.708 8.882-12.914 13.436 35.099 18.44 75.52 33.718 119.655 45.465 9.578-29.42 20.773-57.070 33.493-82.519 19.852-39.704 42.58-72.307 67.405-97.173-19.893 5.424-39.438 12.208-58.595 20.302zM491.534-80.705c-20.998 4.155-41.628 14.725-61.562 31.589-27.005 22.84-51.462 55.954-72.685 98.401-11.379 22.748-21.459 47.43-30.157 73.688 51.503 10.765 107.038 17.018 164.404 18.215l0-221.894zM491.534 182.121c-61.337-1.238-120.863-8.053-176.111-19.852-16.506 62.135-25.931 131.3-27.425 203.433h203.536l-0-183.581zM491.534 406.635h-203.536c1.494 72.153 10.929 141.329 27.435 203.464 55.299-11.829 114.846-18.655 176.101-19.903l-0-183.561zM491.534 631.138c-57.295 1.208-112.85 7.46-164.394 18.246 8.698 26.248 18.778 50.92 30.147 73.668 21.223 42.447 45.68 75.551 72.685 98.401 19.934 16.854 40.564 27.435 61.562 31.589l0-221.904zM694.517 818.229c55.832-23.618 105.984-57.428 149.045-100.499 4.39-4.39 8.688-8.862 12.894-13.405-34.67-18.123-75.438-33.616-119.686-45.425-9.558 29.4-20.753 57.029-33.462 82.458-19.862 39.715-42.59 72.317-67.415 97.183 19.903-5.434 39.459-12.208 58.625-20.313zM532.466 853.042c20.988-4.165 41.608-14.736 61.531-31.589 27.015-22.85 51.472-55.954 72.696-98.401 11.359-22.728 21.438-47.389 30.136-73.617-51.892-10.857-107.785-17.079-164.363-18.286l0 221.894zM532.466 590.195c61.245 1.208 120.259 7.859 176.101 19.842 16.506-62.125 25.941-131.29 27.435-203.403h-203.536v183.561zM532.466 365.702h203.536c-1.504-72.143-10.929-141.329-27.455-203.474-55.289 11.829-114.835 18.655-176.080 19.903l-0 183.571zM593.998-49.115c-19.924-16.854-40.543-27.435-61.531-31.589v221.894c57.285-1.208 112.84-7.46 164.374-18.246-8.698-26.238-18.778-50.909-30.147-73.658-21.223-42.447-45.68-75.561-72.696-98.401zM843.561 54.597c-43.061-43.061-93.213-76.871-149.045-100.489-19.167-8.105-38.722-14.879-58.625-20.313 24.825 24.866 47.553 57.469 67.415 97.183 12.72 25.429 23.904 53.079 33.483 82.489 44.145-11.748 84.597-27.026 119.686-45.435-4.206-4.554-8.514-9.036-12.914-13.436zM944.060 203.651c-15.749-37.228-36.020-71.918-60.559-103.681-39.305 21.561-85.067 39.295-135.179 52.711 17.284 65.359 27.107 137.768 28.612 213.022h203.515c-2.374-56.087-14.582-110.507-36.389-162.051zM776.934 406.635c-1.504 75.233-11.328 147.632-28.601 212.981 50.848 13.63 96.181 31.323 135.169 52.741 24.539-31.753 44.811-66.443 60.559-103.671 21.807-51.544 34.015-105.963 36.389-162.051l-203.515 0z"  horiz-adv-x="1024" />

    
    <glyph glyph-name="outline-camera2" unicode="&#41234;" d="M1001.724 674.946h-233.907l-75.551 113.321c-3.796 5.69-10.182 9.107-17.028 9.107h-326.476c-6.846 0-13.231-3.418-17.028-9.107l-75.551-113.321h-233.907c-11.297 0-20.466-9.159-20.466-20.466v-652.961c0-11.297 9.169-20.466 20.466-20.466h979.447c11.297 0 20.466 9.169 20.466 20.466v652.961c-0 11.308-9.169 20.466-20.466 20.466zM981.258 21.985h-938.515v612.029h224.401c6.836 0 13.231 3.418 17.028 9.118l75.54 113.311h304.577l75.54-113.311c3.796-5.7 10.192-9.118 17.028-9.118h224.401l-0-612.029zM777.323 348.409c0-12.014-0.808-24.099-2.405-35.918-1.525-11.205-11.84-19.054-23.035-17.539s-19.054 11.829-17.529 23.024c1.351 10.008 2.036 20.251 2.036 30.433 0 59.935-23.342 116.289-65.717 158.674-42.375 42.375-98.729 65.717-158.674 65.717s-116.289-23.342-158.674-65.717c-42.375-42.385-65.717-98.739-65.717-158.674 0-59.945 23.342-116.299 65.717-158.674 42.385-42.385 98.729-65.727 158.674-65.727 56.21 0 109.985 20.875 151.419 58.789 8.34 7.624 21.285 7.051 28.919-1.289 7.624-8.34 7.051-21.285-1.289-28.919-48.996-44.821-112.584-69.513-179.048-69.513-70.874 0-137.502 27.599-187.613 77.71-50.111 50.111-77.71 116.749-77.71 187.623s27.599 137.502 77.71 187.613 116.739 77.71 187.613 77.71 137.512-27.599 187.613-77.71c50.111-50.111 77.71-116.739 77.71-187.613z"  horiz-adv-x="1024" />

    
    <glyph glyph-name="outline-delete" unicode="&#41232;" d="M854.357 610.048l-34.659-663.553-0.031-0.379c-2.548-28.499-26.759-50.838-55.115-50.838h-474.845c-28.356 0-52.577 22.339-55.126 50.838l-0.051 0.757-34.618 663.174c-0.583 11.297 8.084 20.916 19.371 21.51 11.297 0.594 20.916-8.084 21.51-19.371l34.588-662.703c0.798-7.102 7.419-13.272 14.326-13.272h474.845c6.897 0 13.518 6.171 14.316 13.262l34.608 662.714c0.594 11.287 10.213 19.954 21.51 19.371 11.287-0.594 19.954-10.223 19.371-21.51zM936.191 754.283c0-11.308-9.159-20.466-20.466-20.466h-265.875c-11.308 0-20.466 9.159-20.466 20.466v61.357c0 11.267-9.169 20.435-20.435 20.435h-163.616c-11.277 0-20.446-9.169-20.446-20.435v-61.357c0-11.308-9.159-20.466-20.466-20.466h-265.875c-11.297 0-20.466 9.159-20.466 20.466 0 11.308 9.169 20.466 20.466 20.466h245.409v40.891c0 33.841 27.537 61.368 61.378 61.368h163.616c33.831 0 61.368-27.527 61.368-61.368v-40.891h245.409c11.308 0 20.466-9.159 20.466-20.466zM639.637 590.667v-572.663c0-11.297-9.169-20.466-20.466-20.466-11.308 0-20.466 9.169-20.466 20.466v572.663c0 11.308 9.159 20.466 20.466 20.466 11.297 0 20.466-9.159 20.466-20.466zM455.565 590.667v-572.663c0-11.297-9.159-20.466-20.466-20.466-11.297 0-20.466 9.169-20.466 20.466v572.663c0 11.308 9.169 20.466 20.466 20.466 11.308 0 20.466-9.159 20.466-20.466z"  horiz-adv-x="1024" />

    
    <glyph glyph-name="outline-deliver" unicode="&#41225;" d="M266.56 264.585c-67.661 0-122.715-55.044-122.715-122.715 0-67.661 55.054-122.715 122.715-122.715s122.715 55.054 122.715 122.715c0 67.671-55.054 122.715-122.715 122.715zM266.56 60.067c-45.107 0-81.803 36.696-81.803 81.803s36.696 81.813 81.803 81.813 81.813-36.706 81.813-81.813-36.706-81.803-81.813-81.803zM798.316 19.16c-67.663 0-122.712 55.049-122.712 122.713s55.049 122.713 122.712 122.713c67.664 0 122.713-55.049 122.713-122.713s-55.049-122.713-122.713-122.713zM798.316 223.681c-45.108 0-81.807-36.699-81.807-81.808s36.699-81.808 81.807-81.808c45.109 0 81.808 36.699 81.808 81.808s-36.699 81.808-81.808 81.808zM593.824 613.328v-451.032h-0.031v449.978zM1023.285 379.431v-237.561c0-11.297-9.148-20.446-20.446-20.446h-40.902c-11.297 0-20.456 9.148-20.456 20.446s9.159 20.456 20.456 20.456h20.446v211.251l-135.977 218.241h-211.702v-449.948c0-11.297-9.159-20.446-20.456-20.446-0.235 0-0.471 0-0.706 0.020h-162.266c-11.277 0-20.425 9.148-20.425 20.425 0 11.287 9.148 20.425 20.425 20.425h142.547v572.714l-552.258-0v-572.714h51.8c11.277 0 20.425-9.138 20.425-20.425 0-11.277-9.148-20.425-20.425-20.425h-72.225c-11.287 0-20.425 9.148-20.425 20.425v613.564c0 11.277 9.138 20.425 20.425 20.425h593.108c11.277 0 20.425-9.148 20.425-20.425v-122.715h223.091c7.061 0 13.62-3.643 17.355-9.629l145.074-232.843c2.026-3.254 3.090-6.999 3.090-10.816zM818.276 394.75l-90.655-0.205-0.42 108.225h90.767z"  horiz-adv-x="1024" />

    
    <glyph glyph-name="outline-down" unicode="&#41224;" d="M764.327 317.956l-222.712-222.723c-3.837-3.837-9.046-5.997-14.48-5.997-5.424 0-10.632 2.159-14.47 5.997l-222.723 222.733c-7.992 7.992-7.992 20.947 0 28.939s20.947 7.992 28.939 0l187.787-187.787v603.894c0 11.308 9.159 20.466 20.466 20.466s20.466-9.159 20.466-20.466v-603.894l187.777 187.777c8.002 7.992 20.957 7.992 28.949 0s7.992-20.947 0-28.939zM842.876 37.928c0-11.297-9.159-20.466-20.466-20.466h-590.55c-11.308 0-20.466 9.169-20.466 20.466 0 11.308 9.159 20.466 20.466 20.466h590.55c11.308-0 20.466-9.159 20.466-20.466z"  horiz-adv-x="1024" />

    
    <glyph glyph-name="outline-download2" unicode="&#41222;" d="M1022.955 373.429c0-100.192-81.517-181.698-181.719-181.698h-185.638c-11.297 0-20.466 9.169-20.466 20.466 0 11.308 9.169 20.466 20.466 20.466h185.638c77.628 0 140.786 63.148 140.786 140.766 0 77.423-62.841 140.449-140.203 140.766-0.42-0.031-0.819-0.051-1.218-0.061-5.945-0.143-11.686 2.292-15.687 6.703-4.001 4.4-5.894 10.335-5.168 16.25 1.33 10.806 1.944 19.76 1.944 28.192 0 60.764-23.659 117.885-66.617 160.833-42.969 42.969-100.090 66.617-160.843 66.617-47.369 0-92.742-14.449-131.208-41.782-37.617-26.739-65.952-63.701-81.926-106.884-2.425-6.539-8.012-11.4-14.828-12.894-6.815-1.484-13.927 0.604-18.86 5.546-19.289 19.33-44.944 29.973-72.245 29.973-56.323 0-102.146-45.813-102.146-102.126 0-0.317 0.041-0.982 0.092-1.627 0.061-0.921 0.123-1.832 0.153-2.763 0.338-9.466-5.864-17.928-15.002-20.456-32.357-8.933-61.542-28.55-82.182-55.218-21.305-27.517-32.572-60.508-32.572-95.413 0-86.244 70.189-156.423 156.443-156.423h169.981c11.297 0 20.466-9.159 20.466-20.466 0-11.297-9.169-20.466-20.466-20.466h-169.981c-108.829 0-197.375 88.536-197.375 197.355 0 44.053 14.224 85.712 41.127 120.474 22.809 29.461 53.898 52.086 88.71 64.816 5.065 74.323 67.149 133.245 142.751 133.245 28.387 0 55.504-8.217 78.651-23.526 19.658 39.868 48.842 74.169 85.497 100.212 45.435 32.296 99.005 49.354 154.918 49.354 71.693 0 139.088-27.916 189.782-78.6 50.695-50.695 78.61-118.090 78.61-189.782 0-3.704-0.102-7.47-0.297-11.369 90.307-10.479 160.628-87.421 160.628-180.481zM629.259 75.289l-102.024-102.013c-3.991-4.001-9.23-5.997-14.47-5.997s-10.479 1.995-14.47 5.997l-102.024 102.013c-7.992 7.992-7.992 20.947 0 28.939s20.947 8.002 28.939 0l67.088-67.078v358.7c0 11.297 9.159 20.466 20.466 20.466 11.308 0 20.466-9.169 20.466-20.466v-358.7l67.088 67.078c7.992 8.002 20.947 7.992 28.939 0s7.992-20.947 0-28.939z"  horiz-adv-x="1024" />

    
    <glyph glyph-name="outline-edit" unicode="&#41221;" d="M236.352-27.205l-2.865-0.767h463.947c11.308 0 20.466-9.159 20.466-20.466 0-11.297-9.159-20.466-20.466-20.466l-619.213 0c-0.010 0-0.010 0-0.020 0-0.348 0-0.686 0.010-1.034 0.031-0.143 0-0.276 0.010-0.42 0.031-0.409 0.020-0.829 0.061-1.238 0.123-0.767 0.092-1.525 0.235-2.262 0.43-0.307 0.082-0.624 0.164-0.931 0.256-0.235 0.072-0.481 0.143-0.716 0.225-0.235 0.082-0.471 0.174-0.696 0.256 0 0 0 0-0.010 0-0.225 0.092-0.46 0.184-0.686 0.287-0.235 0.092-0.46 0.194-0.686 0.307-0.297 0.143-0.594 0.287-0.89 0.45-0.297 0.153-0.594 0.317-0.88 0.491-0.583 0.338-1.146 0.716-1.678 1.115-0.225 0.164-0.44 0.327-0.655 0.501-1.167 0.931-2.231 1.995-3.162 3.162-0.174 0.215-0.338 0.43-0.501 0.655-0.614 0.819-1.156 1.688-1.637 2.609-0.143 0.276-0.287 0.563-0.42 0.839-0.102 0.225-0.205 0.45-0.307 0.686-0.194 0.46-0.368 0.921-0.532 1.392-0.153 0.471-0.297 0.941-0.43 1.412-0.184 0.737-0.338 1.474-0.45 2.221-0.092 0.634-0.153 1.289-0.194 1.934 0 0.020-0.010 0.031 0 0.051-0.010 0.153-0.010 0.307-0.010 0.46-0.010 0.082-0.010 0.174-0.010 0.266-0.010 0.307 0 0.624 0.010 0.941 0.010 0.225 0.020 0.44 0.031 0.665 0.041 0.665 0.123 1.33 0.225 1.995 0.031 0.225 0.072 0.44 0.123 0.655 0.041 0.225 0.092 0.44 0.143 0.665 0.051 0.215 0.102 0.44 0.164 0.655l0.153 0.563c0.010 0.082 0.041 0.153 0.061 0.225l40.769 152.033c0.941 3.51 2.794 6.692 5.372 9.251l633.427 626.929c8.033 7.951 20.998 7.89 28.949-0.143 7.951-8.043 7.879-20.998-0.153-28.949l-629.487-623.040-30.372-113.208 113.321 30.402 629.569 623.122c8.033 7.951 20.998 7.879 28.949-0.153s7.879-20.988-0.153-28.939l-633.427-626.939c-2.528-2.497-5.659-4.298-9.087-5.219zM921.621 648.022c-0.1-0.080 16.818 16.839 16.818 16.839 38.798 38.798 38.798 101.686 0.041 140.454-38.837 38.808-101.706 38.777-140.485 0 0 0-16.936-16.938-16.839-16.839l140.464-140.454zM57.775-47.774c-0.010-0.317-0.020-0.634-0.010-0.941-0.010 0.092-0.010 0.184-0.010 0.276 0 0.225 0 0.45 0.020 0.665zM58.031-45.113c-0.102-0.665-0.184-1.33-0.225-1.995 0.031 0.675 0.113 1.341 0.225 1.995zM57.98-51.427c-0.102 0.634-0.164 1.279-0.194 1.934 0.041-0.645 0.102-1.3 0.194-1.934zM58.614-42.575c-0.123-0.399-0.235-0.808-0.317-1.218 0.051 0.215 0.102 0.44 0.164 0.655l0.153 0.563z"  horiz-adv-x="1024" />

    
    <glyph glyph-name="outline-eraser" unicode="&#41220;" d="M700.578 747.358c0-11.268-9.127-20.405-20.405-20.405s-20.405 9.137-20.405 20.405c0 11.268 9.127 20.405 20.405 20.405s20.405-9.137 20.405-20.405zM823.008 624.928c0-11.268-9.127-20.405-20.405-20.405s-20.405 9.137-20.405 20.405 9.127 20.405 20.405 20.405c11.277-0 20.405-9.137 20.405-20.405zM578.149 624.928c0-11.268-9.127-20.405-20.405-20.405s-20.405 9.137-20.405 20.405 9.127 20.405 20.405 20.405c11.278-0 20.405-9.137 20.405-20.405zM516.933 563.713c0-11.268-9.127-20.405-20.405-20.405s-20.405 9.137-20.405 20.405 9.127 20.405 20.405 20.405 20.405-9.137 20.405-20.405zM578.149 502.499c0-11.268-9.127-20.405-20.405-20.405s-20.405 9.137-20.405 20.405c0 11.268 9.127 20.405 20.405 20.405s20.405-9.138 20.405-20.405zM639.364 686.143c0-11.268-9.127-20.405-20.405-20.405s-20.405 9.137-20.405 20.405c0 11.268 9.127 20.405 20.405 20.405 11.277-0 20.405-9.137 20.405-20.405zM761.793 686.143c0-11.268-9.127-20.405-20.405-20.405s-20.405 9.137-20.405 20.405c0 11.268 9.127 20.405 20.405 20.405s20.405-9.137 20.405-20.405zM700.578 502.499c0-11.268-9.127-20.405-20.405-20.405s-20.405 9.137-20.405 20.405c0 11.268 9.127 20.405 20.405 20.405s20.405-9.138 20.405-20.405zM639.364 563.713c0-11.268-9.127-20.405-20.405-20.405s-20.405 9.137-20.405 20.405 9.127 20.405 20.405 20.405c11.277-0 20.405-9.137 20.405-20.405zM884.223 563.713c0-11.268-9.127-20.405-20.405-20.405s-20.405 9.137-20.405 20.405 9.127 20.405 20.405 20.405 20.405-9.137 20.405-20.405zM639.364 441.284c0-11.268-9.127-20.405-20.405-20.405s-20.405 9.137-20.405 20.405 9.127 20.405 20.405 20.405c11.277-0 20.405-9.137 20.405-20.405zM761.793 441.284c0-11.268-9.127-20.405-20.405-20.405s-20.405 9.137-20.405 20.405 9.127 20.405 20.405 20.405c11.278-0 20.405-9.137 20.405-20.405zM968.374 555.649l-252.613 255.172c-11.615 11.748-27.087 18.215-43.552 18.215h-0.010c-16.465 0-31.927-6.457-43.552-18.194l-542.772-548.277c-23.833-24.089-23.823-63.302 0.031-87.411l195.196-197.181c7.951-8.033 20.916-8.094 28.949-0.143 8.033 7.951 8.094 20.916 0.143 28.949l-195.196 197.16c-8.146 8.238-8.156 21.612-0.031 29.829l258.774 261.393c0.952-1.596 2.159-3.090 3.592-4.421l289.258-269.17-212.643-214.802c-5.812-5.864-7.521-14.654-4.339-22.277 3.172-7.624 10.622-12.587 18.88-12.587h374.929c11.297 0 20.466 9.169 20.466 20.466 0 11.308-9.169 20.466-20.466 20.466h-325.872l450.838 455.412c23.833 24.119 23.833 63.332-0.010 87.401zM944.869 507.298c-2.149 8.954-10.213 15.605-19.832 15.605-11.287 0-20.405-9.138-20.405-20.405 0-11.093 8.831-20.118 19.873-20.384l-40.277-40.697c-0.072 11.205-9.169 20.272-20.405 20.272-11.287 0-20.405-9.138-20.405-20.405s9.118-20.405 20.405-20.405h0.072l-40.902-41.321c0.010 0.174 0.010 0.338 0.010 0.512 0 11.267-9.118 20.405-20.405 20.405-11.277 0-20.405-9.138-20.405-20.405s9.128-20.405 20.405-20.405c0.235 0 0.481 0 0.716 0.020l-41.567-41.986c0.031 0.389 0.041 0.767 0.041 1.156 0 11.267-9.128 20.405-20.405 20.405s-20.405-9.138-20.405-20.405 9.128-20.405 20.405-20.405c0.46 0 0.911 0.010 1.361 0.051l-42.252-42.682c0.051 0.604 0.082 1.208 0.082 1.821 0 11.267-9.128 20.405-20.405 20.405-3.981 0-7.695-1.136-10.827-3.111l-34.056 31.692c2.558 3.408 4.073 7.644 4.073 12.229 0 11.267-9.128 20.405-20.405 20.405-5.117 0-9.803-1.883-13.375-4.994l-33.564 31.231c3.786 3.694 6.13 8.862 6.13 14.572 0 11.267-9.128 20.405-20.405 20.405-6.242 0-11.829-2.804-15.564-7.214l-33.769 31.436c5.168 3.694 8.524 9.752 8.524 16.588 0 11.267-9.128 20.405-20.405 20.405-7.368 0-13.825-3.899-17.406-9.752l-34.7 32.306c6.703 3.336 11.297 10.264 11.297 18.256 0 11.267-9.128 20.405-20.405 20.405-8.524 0-15.82-5.219-18.87-12.638l-11.226 10.448c-1.105 1.034-2.302 1.914-3.561 2.65l256.072 258.671c1.934 1.955 4.196 3.479 6.641 4.503 2.456 1.034 5.096 1.566 7.828 1.566 5.454 0 10.601-2.159 14.47-6.078l252.613-255.172c5.239-5.301 7.112-12.73 5.587-19.555zM700.575 380.071c0-11.267-9.128-20.405-20.405-20.405s-20.405 9.138-20.405 20.405 9.128 20.405 20.405 20.405c11.277 0 20.405-9.138 20.405-20.405zM823.003 502.499c0-11.267-9.118-20.405-20.405-20.405-11.277 0-20.405 9.138-20.405 20.405s9.128 20.405 20.405 20.405c11.287-0 20.405-9.138 20.405-20.405zM761.789 563.713c0-11.267-9.128-20.405-20.405-20.405s-20.405 9.138-20.405 20.405 9.128 20.405 20.405 20.405c11.277-0 20.405-9.138 20.405-20.405zM700.575 624.927c0-11.267-9.128-20.405-20.405-20.405s-20.405 9.138-20.405 20.405 9.128 20.405 20.405 20.405c11.277 0 20.405-9.138 20.405-20.405z"  horiz-adv-x="1024" />

    
    <glyph glyph-name="outline-favor" unicode="&#41219;" d="M970.124 470.142l-241.337-196.025 80.023-300.443c2.906-10.919-3.592-22.134-14.51-25.040-1.77-0.471-3.541-0.696-5.28-0.696-9.046 0-17.325 6.048-19.76 15.206l-83.43 313.234c-2.077 7.798 0.614 16.076 6.866 21.162l210.422 170.913-270.685 14.592c-8.053 0.43-15.094 5.546-18 13.068l-97.531 252.931-97.531-252.931c-2.906-7.521-9.947-12.638-18-13.068l-270.685-14.592 210.422-170.913c6.252-5.086 8.944-13.364 6.866-21.162l-69.769-261.946 227.573 147.284c6.764 4.38 15.472 4.38 22.247 0l112.543-72.839c9.496-6.15 12.208-18.819 6.068-28.305-6.15-9.486-18.819-12.208-28.305-6.058l-101.43 65.645-261.004-168.938c-7.112-4.595-16.312-4.349-23.157 0.634-6.846 4.973-9.926 13.641-7.746 21.817l80.023 300.443-241.337 196.025c-6.57 5.331-9.179 14.163-6.559 22.216 2.609 8.043 9.916 13.651 18.358 14.111l310.461 16.731 111.868 290.097c3.039 7.89 10.632 13.098 19.095 13.098 8.463 0 16.056-5.209 19.095-13.098l111.868-290.097 310.461-16.731c8.453-0.46 15.749-6.068 18.358-14.111 2.62-8.053 0.010-16.885-6.559-22.216z"  horiz-adv-x="1024" />

    
    <glyph glyph-name="outline-fill" unicode="&#41218;" d="M951.591 408.109c-26.565 42.027-63.465 78.222-109.668 107.59-65.573 41.669-130.533 57.397-151.306 61.634l-232.413 232.403c-7.992 7.992-20.957 7.992-28.939 0l-14.531-14.531c-87.083-1.402-161.16-14.633-214.966-38.476-29.758-13.18-53.048-29.492-69.227-48.484-17.744-20.835-26.739-44.401-26.739-70.056 0-37.32 14.807-70.158 44.002-97.593 2.098-1.965 4.267-3.909 6.508-5.812l-87.38-87.38c-59.567-59.556-59.567-156.484 0-216.071l228.003-228.003c29.778-29.778 68.889-44.657 108.010-44.657 39.131 0 78.262 14.899 108.051 44.688l235.197 235.217c7.992 7.992 7.992 20.947 0 28.939s-20.947 7.992-28.939 0l-235.197-235.207c-43.613-43.624-114.569-43.634-158.183-0.031l-228.003 228.003c-43.603 43.613-43.603 114.569 0 158.172l92.65 92.65c17.857-10.161 38.456-19.177 61.664-26.974 76.185-25.613 164.803-33.309 226.14-35.243 6.979-12.474 20.313-20.906 35.632-20.906 22.543 0 40.809 18.276 40.809 40.83 0 22.533-18.266 40.789-40.809 40.789-14.879 0-27.875-7.941-35.007-19.811-109.187 3.336-179.805 21.735-213.728 33.135-16.567 5.567-31.416 11.686-44.524 18.358l225.035 225.045 386.165-386.155-25.439-25.439c-5.976-5.976-8.719-15.002-5.301-22.728 3.275-7.439 9.66-12.198 17.662-12.198h0.43c2.517-0.634 13.866-4.482 25.982-24.304 13.845-22.656 30.341-69.462 30.341-163.76 0-31.63 4.462-59.403 12.894-80.33 13.866-34.393 34.199-39.53 45.087-39.53 29.062 0 45.025 32.296 53.294 59.382 11.205 36.686 16.895 88.424 16.895 153.782-0 68.828-16.874 130.42-50.152 183.059zM183.344 563.815c-25.675 21.008-38.609 45.865-38.609 74.374 0 61.265 89.15 104.807 227.256 114.273l-188.646-188.646zM948.347 92.706c-6.57-25.849-13.63-35.509-16.782-38.742-5.915 6.385-17.059 30.443-17.059 77.782 0 88.997-13.896 153.813-41.301 192.637-6.611 9.363-13.354 16.312-19.74 21.469l19.852 19.852c3.837 3.837 5.997 9.046 5.997 14.47 0 5.424-2.159 10.632-5.997 14.47l-120.965 120.965c21.264-8.555 45.077-20.016 68.735-35.171 40.789-26.125 73.197-58.032 96.314-94.85 28.806-45.844 43.409-99.854 43.409-160.536 0-54.481-4.308-100.243-12.464-132.344z"  horiz-adv-x="1024" />

    
    <glyph glyph-name="outline-folder2" unicode="&#41217;" d="M960.976 623.935v61.153c0 33.79-27.496 61.276-61.286 61.276h-529.868c-0.819 0.43-3.5 2.149-8.258 8.135-4.912 6.171-9.916 14.152-15.206 22.605-15.687 25.010-31.907 50.879-58.809 50.879l-224.462 0c-33.779 0-61.276-27.486-61.276-61.276v-693.802c0-0.338 0.010-0.686 0.031-1.023 0.010-0.246 0.031-0.501 0.051-0.767 0.020-0.225 0.041-0.45 0.072-0.675 0.010-0.113 0.031-0.225 0.051-0.348 0.010-0.174 0.041-0.338 0.072-0.512 0.051-0.276 0.102-0.553 0.153-0.819 0.041-0.225 0.092-0.46 0.153-0.686 0.174-0.686 0.368-1.351 0.604-2.016 0.102-0.266 0.205-0.532 0.307-0.798 0.082-0.205 0.174-0.409 0.256-0.614 0.051-0.092 0.092-0.194 0.133-0.297 0.102-0.215 0.215-0.44 0.327-0.655 0.174-0.348 0.368-0.696 0.573-1.044 0.082-0.153 0.174-0.307 0.266-0.45 0.849-1.381 1.862-2.661 3.019-3.807 0.164-0.164 0.327-0.327 0.501-0.481 0.287-0.266 0.583-0.522 0.88-0.767 0.256-0.205 0.512-0.409 0.778-0.614 0.266-0.194 0.532-0.389 0.798-0.563 0.266-0.184 0.532-0.358 0.808-0.522 0.317-0.194 0.645-0.379 0.982-0.553 0.184-0.113 0.379-0.205 0.573-0.307 0.205-0.092 0.409-0.194 0.604-0.287 0.010 0 0.020 0 0.020 0 0.266-0.123 0.542-0.246 0.819-0.348 0.553-0.225 1.115-0.43 1.699-0.604 0.573-0.174 1.167-0.327 1.77-0.45 0.757-0.153 1.504-0.266 2.251-0.338 0.624-0.061 1.248-0.092 1.873-0.092h0.061c0.348 0 0.686 0.010 1.034 0.031 0.246 0 0.491 0.020 0.737 0.051 0.246 0.020 0.501 0.041 0.747 0.082 0.082 0 0.164 0.010 0.235 0.031 0.215 0.020 0.43 0.051 0.645 0.092 0.266 0.041 0.522 0.092 0.778 0.143 0.194 0.041 0.389 0.082 0.583 0.143 0.716 0.164 1.412 0.368 2.098 0.614 0.266 0.102 0.532 0.205 0.798 0.307 0.266 0.113 0.522 0.215 0.778 0.338 0.010 0 0.020 0 0.020 0 0.266 0.123 0.512 0.246 0.767 0.379 0.358 0.174 0.706 0.358 1.044 0.573 0.153 0.082 0.307 0.174 0.45 0.266 0.798 0.481 1.555 1.023 2.282 1.627 0.256 0.205 0.501 0.42 0.747 0.645 0.235 0.215 0.471 0.44 0.706 0.675 0.235 0.235 0.46 0.471 0.675 0.706 0.225 0.246 0.44 0.491 0.645 0.747 0.205 0.256 0.409 0.512 0.614 0.778 0.010 0.010 0.010 0.010 0.010 0.010 0.379 0.522 0.747 1.064 1.085 1.617 0.174 0.287 0.338 0.573 0.491 0.86 0.133 0.246 0.266 0.491 0.389 0.737 0.041 0.092 0.092 0.184 0.133 0.276 0.092 0.205 0.184 0.409 0.276 0.624 0.102 0.215 0.194 0.45 0.276 0.675 0.082 0.194 0.153 0.389 0.225 0.583 0.020 0.072 0.051 0.143 0.072 0.225 0.082 0.225 0.153 0.46 0.225 0.696 0.174 0.573 0.327 1.167 0.45 1.77l0.020 0.102 102.443 491.678v2.108c0 11.215 9.118 20.343 20.343 20.343h795.795c10.683 0 19.484-8.289 20.282-18.788l-101.625-548.768c-0.061-0.317-0.113-0.634-0.153-0.941-0.041-0.297-0.072-0.583-0.102-0.87-0.020-0.287-0.051-0.573-0.061-0.86-0.020-0.327-0.031-0.665-0.031-0.993v-0.082c-0.010-11.205-9.128-20.323-20.343-20.323h-596.035c-11.308 0-20.466-9.159-20.466-20.466 0-11.297 9.159-20.466 20.466-20.466h596.035c33.073 0 60.109 26.34 61.235 59.137v0.010l102.075 551.183v1.883c-0 33.769-27.466 61.245-61.214 61.276zM920.043 623.935h-754.924c-33.012 0-60.017-26.238-61.235-58.963l-61.143-293.494v495.229c0 11.215 9.128 20.343 20.343 20.343h224.043c0.706-0.307 3.51-1.821 8.678-8.217 5.157-6.385 10.601-15.073 15.871-23.475 15.38-24.549 31.293-49.927 57.489-49.927h530.523c11.226 0 20.354-9.128 20.354-20.343l0-61.153zM16.341 53.349c-0.573 0.174-1.146 0.368-1.699 0.604 0.553-0.225 1.115-0.43 1.699-0.604z"  horiz-adv-x="1024" />

    
    <glyph glyph-name="outline-like" unicode="&#41216;" d="M998.163 527.36c0-50.899-9.987-100.632-29.676-147.827-17.304-41.475-42.713-82.345-75.52-121.466-61.337-73.156-140.326-131.403-209.512-178.72-9.333-6.375-22.062-3.991-28.448 5.342-6.385 9.322-3.991 22.062 5.342 28.448 66.883 45.752 143.099 101.87 201.254 171.22 64.345 76.758 95.628 156.249 95.628 243.005 0 124.229-101.072 225.291-225.291 225.291-75.622 0-145.811-37.709-187.756-100.878l-17.048-25.675-17.048 25.675c-41.945 63.169-112.134 100.878-187.756 100.878-124.219 0-225.291-101.062-225.291-225.291 0-215.713 197.764-348.108 342.173-444.77 39.95-26.749 74.456-49.845 101.021-71.99 8.688-7.235 9.865-20.139 2.62-28.816-4.042-4.861-9.865-7.368-15.728-7.368-4.625 0-9.261 1.555-13.088 4.748-24.928 20.763-58.605 43.306-97.593 69.411-72.645 48.628-163.054 109.146-234.173 185.751-39.571 42.621-69.002 85.282-89.979 130.431-24.007 51.697-36.184 106.403-36.184 162.603 0 71.11 27.691 137.962 77.986 188.247 50.285 50.285 117.138 77.976 188.237 77.976 79.787 0 154.448-35.509 204.805-96.232 50.357 60.723 125.017 96.232 204.805 96.232 71.099 0 137.962-27.691 188.237-77.976 50.295-50.285 77.986-117.138 77.986-188.247z"  horiz-adv-x="1024" />

    
    <glyph glyph-name="outline-lock" unicode="&#41113;" d="M894.42 516.697h-122.367v101.962c0 65.43-25.47 126.941-71.724 173.195s-107.764 71.724-173.195 71.724-126.941-25.47-173.195-71.724-71.724-107.764-71.724-173.195v-101.962h-122.367c-11.308 0-20.466-9.169-20.466-20.466v-571.343c0-11.297 9.159-20.466 20.466-20.466h734.57c11.308 0 20.466 9.169 20.466 20.466v571.343c-0 11.297-9.159 20.466-20.466 20.466zM323.149 618.659c0 54.501 21.213 105.728 59.741 144.255 38.517 38.517 89.744 59.73 144.245 59.73s105.728-21.213 144.245-59.73c38.527-38.527 59.741-89.754 59.741-144.255v-101.962h-407.972l-0 101.962zM873.954-54.645h-693.638v530.41h693.638v-530.41zM588.349 251.374c0-18.072-7.972-34.137-20.405-45.332v-56.691c0-22.543-18.276-40.82-40.809-40.82-22.533 0-40.809 18.276-40.809 40.82v56.691c-12.433 11.195-20.405 27.261-20.405 45.332 0 33.81 27.404 61.214 61.214 61.214 33.82 0 61.214-27.404 61.214-61.214z"  horiz-adv-x="1024" />

    
    <glyph glyph-name="outline-mail" unicode="&#41112;" d="M961.871 576.249v150.641l-897.695 0v-652.839h897.695v342.705c0 11.308 9.159 20.466 20.466 20.466 11.297 0 20.466-9.159 20.466-20.466v-363.171c0-11.297-9.169-20.466-20.466-20.466h-938.628c-11.308 0-20.466 9.169-20.466 20.466v693.771c0 11.308 9.159 20.466 20.466 20.466h938.628c11.297 0 20.466-9.159 20.466-20.466v-182.026c0-6.815-3.408-13.19-9.066-16.987l-428.499-287.59c-6.754-4.523-15.534-4.636-22.38-0.276l-383.361 243.588c-9.537 6.058-12.362 18.706-6.293 28.243 6.058 9.537 18.706 12.362 28.243 6.304l372.074-236.414 408.35 274.052z"  horiz-adv-x="1024" />

    
    <glyph glyph-name="outline-mark" unicode="&#41249;" d="M944.981 748.184v-413.938c0-7.368-3.95-14.152-10.346-17.795-3.756-2.139-93.336-52.352-208.806-52.352-111.1 0-181.893 20.538-244.355 38.661-51.002 14.797-95.055 27.578-153.035 27.578-20.701 0-40.973-0.819-60.263-2.425-11.267-0.941-21.152 7.429-22.093 18.696-0.931 11.267 7.429 21.152 18.696 22.093 20.415 1.699 41.833 2.568 63.66 2.568 63.803 0 112.686-14.183 164.445-29.195 62.759-18.215 127.657-37.044 232.945-37.044 83.277 0 152.8 29.41 178.219 41.7v368.963c-37.832-16.26-102.095-37.647-178.219-37.647-86.664 0-147.909 26.125-207.127 51.38-57.827 24.662-112.441 47.962-190.263 47.962-77.219 0-123.421-7.593-148.574-13.968-14.613-3.704-24.027-7.429-29.645-10.12v-750.216c0-11.297-9.169-20.466-20.466-20.466-11.308 0-20.466 9.169-20.466 20.466v761.657c0 5.577 2.272 10.908 6.293 14.766 6.764 6.488 48.771 38.814 212.858 38.814 86.193 0 147.264-26.053 206.319-51.247 57.991-24.733 112.768-48.095 191.072-48.095 94.349 0 168.477 36.133 188.953 47.205 6.334 3.428 14.019 3.275 20.21-0.42 6.201-3.694 9.987-10.366 9.987-17.58z"  horiz-adv-x="1024" />

    
    <glyph glyph-name="outline-message2" unicode="&#41110;" d="M996.515 441.285c0-55.484-12.576-109.289-37.371-159.912-23.823-48.658-57.878-92.302-101.205-129.714-43.112-37.238-93.254-66.443-149.045-86.828-57.602-21.039-118.755-31.702-181.76-31.702-11.308 0-20.466 9.159-20.466 20.466 0 11.297 9.159 20.466 20.466 20.466 58.206 0 114.631 9.824 167.72 29.215 51.114 18.675 96.989 45.373 136.335 79.357 80.207 69.278 124.393 161.13 124.393 258.651 0 97.511-44.186 189.373-124.393 258.651-39.346 33.984-85.221 60.682-136.335 79.347-53.089 19.392-109.514 29.226-167.72 29.226s-114.631-9.834-167.72-29.226c-51.124-18.665-96.989-45.363-136.335-79.347-80.217-69.278-124.393-161.13-124.393-258.651 0-59.024 15.861-115.398 47.133-167.536 30.044-50.101 73.934-94.339 126.931-127.924 5.904-3.756 9.496-10.264 9.507-17.263 0-2.691-0.471-58.717-42.396-132.927 33.851 5.761 66.587 19.248 97.716 40.328 32.695 22.144 51.216 44.78 51.401 45.005 7.102 8.77 19.985 10.151 28.765 3.060s10.182-19.934 3.121-28.724c-0.87-1.085-21.745-26.841-59.065-52.363-49.211-33.667-104.531-51.442-160.066-51.442h-1.167c-7.634 0.041-14.603 4.308-18.102 11.093-3.489 6.774-2.927 14.94 1.463 21.172 29.379 41.679 43.419 78.815 50.019 102.638 3.735 13.467 5.577 24.314 6.488 31.63-53.713 36.102-98.401 82.448-129.725 134.667-34.639 57.766-52.956 122.971-52.956 188.585 0 55.484 12.576 109.289 37.361 159.912 23.833 48.648 57.878 92.302 101.205 129.714 43.112 37.228 93.254 66.443 149.045 86.828 57.602 21.039 118.755 31.702 181.77 31.702 63.005 0 124.158-10.663 181.76-31.702 55.791-20.384 105.933-49.6 149.045-86.828 43.327-37.412 77.382-81.066 101.205-129.714 24.795-50.623 37.371-104.428 37.371-159.912z"  horiz-adv-x="1024" />

    
    <glyph glyph-name="outline-more" unicode="&#41109;" d="M191.401 283.302c-64.608 0-117.172 52.563-117.172 117.172s52.563 117.172 117.172 117.172 117.172-52.563 117.172-117.172-52.563-117.172-117.172-117.172zM191.401 476.713c-42.039 0-76.239-34.201-76.239-76.239s34.201-76.239 76.239-76.239 76.239 34.201 76.239 76.239-34.201 76.239-76.239 76.239zM527.135 283.302c-64.608 0-117.172 52.563-117.172 117.172s52.563 117.172 117.172 117.172c64.61 0 117.173-52.563 117.173-117.172 0-64.608-52.563-117.172-117.173-117.172zM527.135 476.713c-42.038 0-76.239-34.201-76.239-76.239s34.201-76.239 76.239-76.239c42.039 0 76.24 34.201 76.24 76.239 0 42.038-34.201 76.239-76.24 76.239zM862.869 283.302c-64.61 0-117.173 52.563-117.173 117.172s52.563 117.172 117.173 117.172c64.608 0 117.172-52.563 117.172-117.172 0-11.231-1.591-22.347-4.728-33.039-3.182-10.847-14.558-17.055-25.401-13.877-10.846 3.182-17.059 14.556-13.877 25.401 2.039 6.948 3.073 14.187 3.073 21.515 0 42.039-34.201 76.239-76.239 76.239-42.039 0-76.24-34.201-76.24-76.239s34.201-76.239 76.24-76.239c11.722 0 22.958 2.583 33.394 7.677 10.157 4.96 22.41 0.745 27.369-9.413s0.744-22.411-9.413-27.369c-16.077-7.848-33.353-11.825-51.35-11.825z"  horiz-adv-x="1024" />

    
    <glyph glyph-name="outline-notification" unicode="&#41111;" d="M540.173 863.112c-7.337 3.305-15.933 2.006-21.97-3.326l-316.652-280.089h-181.084c-11.308 0-20.466-9.159-20.466-20.466v-327.233c0-11.297 9.159-20.466 20.466-20.466h175.958c11.308 0 20.466 9.169 20.466 20.466v308.23c2.169 0.86 4.196 2.098 5.976 3.674l288.439 255.131v-798.066l-196.362 168.139c-8.575 7.358-21.5 6.355-28.847-2.231-7.358-8.586-6.355-21.5 2.231-28.857l230.131-197.068c3.776-3.244 8.524-4.922 13.313-4.922 2.896 0 5.812 0.614 8.555 1.873 7.255 3.346 11.911 10.601 11.911 18.593l-0 887.964c0 8.043-4.728 15.35-12.065 18.655zM175.957 252.464h-135.025v286.301h135.025v-286.301zM736.3 400.475c0-62.974-42.549-118.069-103.466-133.992-1.729-0.46-3.479-0.675-5.188-0.675-9.087 0-17.386 6.099-19.791 15.298-2.855 10.929 3.694 22.114 14.623 24.969 42.917 11.226 72.89 50.040 72.89 94.4 0 44.35-29.973 83.174-72.89 94.39-10.929 2.865-17.478 14.040-14.623 24.979 2.865 10.939 14.050 17.478 24.979 14.623 60.917-15.923 103.466-71.028 103.466-133.992zM879.47 400.24c0-108.563-59.311-208.202-154.785-260.043-3.101-1.678-6.447-2.476-9.752-2.476-7.255 0-14.296 3.868-18 10.704-5.393 9.936-1.709 22.359 8.217 27.752 82.274 44.667 133.388 130.523 133.388 224.063 0 93.868-51.37 179.897-134.053 224.503-9.957 5.372-13.671 17.785-8.299 27.732 5.362 9.947 17.785 13.661 27.732 8.299 95.945-51.769 155.553-151.593 155.553-260.534zM1024.207 400.475c0-78.088-21.848-154.13-63.179-219.909-40.206-63.967-97.061-115.746-164.435-149.74-2.947-1.484-6.099-2.19-9.2-2.19-7.48 0-14.684 4.114-18.286 11.246-5.096 10.090-1.044 22.4 9.056 27.496 60.713 30.628 111.97 77.301 148.205 134.974 37.228 59.239 56.906 127.75 56.906 198.122s-19.678 138.883-56.906 198.122c-36.235 57.663-87.493 104.336-148.205 134.974-10.1 5.086-14.152 17.396-9.056 27.486 5.086 10.1 17.396 14.152 27.486 9.056 67.374-33.984 124.229-85.763 164.435-149.74 41.331-65.768 63.179-141.81 63.179-219.898z"  horiz-adv-x="1025" />

    
    <glyph glyph-name="outline-person2" unicode="&#41233;" d="M936.723-15.366c0-11.308-9.169-20.466-20.466-20.466h-778.245c-5.638 0-11.031 2.323-14.899 6.437-3.868 4.103-5.864 9.629-5.526 15.257 3.346 55.688 25.521 99.322 67.804 133.378 35.345 28.479 79.941 46.018 119.287 61.49 48.116 18.921 89.836 35.325 102.372 64.12 1.965 23.301 1.811 41.383 1.627 62.186-0.031 3.121-0.051 6.283-0.072 9.527-18.839 18.798-38.19 58.748-45.199 94.216-6.703 3.428-12.853 8.575-18.051 15.206-10.192 13.006-16.823 31.733-19.699 55.668-2.732 22.758 4.083 40.165 13.323 51.452-25.051 103.947-17.693 183.039 21.909 235.227 33.421 44.033 88.577 67.057 163.954 68.439 0.123 0.010 0.246 0.010 0.379 0.010 49.415 0 86.449-13.323 105.789-37.75 35.058-6.938 61.716-24.774 79.316-53.11 18.993-30.566 26.514-72.358 22.349-124.209-2.968-37.044-11.103-69.789-16.833-89.273 8.964-11.297 15.452-28.468 12.771-50.787-2.875-23.935-9.496-42.662-19.699-55.668-5.188-6.611-11.318-11.748-18-15.186-4.554-23.894-13.61-44.933-19.156-56.333-6.099-12.546-14.807-27.793-25.010-37.975-0.020-3.295-0.051-6.508-0.082-9.67-0.184-20.742-0.338-38.763 1.617-61.971 12.525-28.796 54.082-45.199 101.993-64.12 49.896-19.699 106.444-42.027 144.245-85.988 7.368-8.575 6.396-21.489-2.169-28.867-8.575-7.368-21.5-6.396-28.867 2.18-31.201 36.297-80.534 55.77-128.241 74.599-55.883 22.062-108.655 42.897-126.276 90.266-0.634 1.699-1.034 3.479-1.197 5.29-2.405 26.678-2.221 47.226-2.036 68.971 0.061 6.13 0.113 12.464 0.113 19.085 0 7.491 4.093 14.367 10.653 17.959 7.562 5.464 31.569 45.455 35.724 84.32 1.044 9.773 8.893 17.427 18.686 18.225 2.62 0.215 13.201 7.593 17.069 39.766 1.985 16.526-6.058 22.339-6.14 22.4-8.146 4.953-11.758 14.858-8.749 23.915 15.718 47.287 33.923 140.838 2.466 191.481-12.556 20.21-31.968 31.886-59.342 35.693-6.293 0.87-11.819 4.625-14.961 10.141-9.148 16.056-37.494 25.654-75.847 25.685-62.104-1.177-106.485-18.757-131.914-52.26-16.833-22.196-26.197-52.24-27.803-89.304-1.525-35.018 3.817-76.318 15.871-122.746 2.272-8.729-1.443-17.918-9.138-22.615-0.051-0.031-8.115-5.864-6.13-22.39 3.868-32.173 14.449-39.551 17.069-39.766 9.803-0.798 17.642-8.453 18.686-18.225 4.124-38.671 28.929-78.784 36.767-84.3 6.58-3.582 10.694-10.479 10.694-17.979 0-6.549 0.051-12.812 0.102-18.87 0.184-21.817 0.368-42.426-2.057-69.186-0.153-1.811-0.563-3.592-1.197-5.29-17.621-47.389-70.608-68.224-126.696-90.286-38.405-15.104-78.119-30.72-108.593-55.269-27.558-22.206-43.767-48.709-50.019-82.264h755.21c11.297-0 20.466-9.169 20.466-20.466z"  horiz-adv-x="1024" />

    
    <glyph glyph-name="outline-record" unicode="&#41237;" d="M685.696 832.043c-42.375 41.249-98.688 63.957-158.561 63.957s-116.186-22.707-158.561-63.957c-42.529-41.393-65.952-96.477-65.952-155.092v-255.786c0-58.615 23.423-113.7 65.952-155.092 42.375-41.249 98.688-63.957 158.561-63.957s116.186 22.707 158.561 63.957c42.529 41.393 65.952 96.477 65.952 155.092l0 255.786c0 58.615-23.423 113.7-65.952 155.092zM710.716 421.165c0-98.217-82.356-178.117-183.581-178.117s-183.581 79.9-183.581 178.117l0 255.786c0 98.217 82.356 178.117 183.581 178.117s183.581-79.9 183.581-178.117v-255.786zM853.672 528.654v-102.024c0-173.184-135.516-315.301-306.071-325.903v-143.416c0-11.297-9.159-20.466-20.466-20.466s-20.466 9.169-20.466 20.466v143.416c-170.554 10.601-306.071 152.718-306.071 325.903v102.024c0 11.297 9.159 20.466 20.466 20.466 11.297 0 20.466-9.169 20.466-20.466v-102.024c0-157.487 128.118-285.605 285.605-285.605s285.605 128.118 285.605 285.605v102.024c0 11.297 9.169 20.466 20.466 20.466 11.308 0 20.466-9.169 20.466-20.466zM791.414-103.903c0-11.297-9.169-20.466-20.466-20.466h-487.626c-11.297 0-20.466 9.169-20.466 20.466 0 11.308 9.169 20.466 20.466 20.466h487.626c11.297 0 20.466-9.159 20.466-20.466z"  horiz-adv-x="1024" />

    
    <glyph glyph-name="outline-rest" unicode="&#41240;" d="M469.277 632.5c-7.010-45.015-54.696-87.135-60.109-91.791-3.868-3.316-8.606-4.943-13.323-4.943-5.761 0-11.481 2.415-15.524 7.112-7.358 8.565-6.385 21.479 2.18 28.847 11.522 9.957 42.365 41.454 46.356 67.067 3.428 22.001-5.577 31.364-20.497 46.867-12.484 12.965-28.008 29.113-32.654 54.798-14.633 80.974 53.232 133.889 56.128 136.1 8.974 6.866 21.807 5.147 28.673-3.827 6.836-8.954 5.147-21.755-3.776-28.622-0.317-0.256-13.579-10.714-25.102-28.223-14.572-22.144-19.842-45.066-15.667-68.152 2.435-13.518 11.011-22.431 21.868-33.708 16.925-17.591 37.995-39.479 31.446-81.527zM620.358 632.5c-7.020-45.015-54.696-87.135-60.109-91.791-3.868-3.316-8.606-4.943-13.334-4.943-5.751 0-11.471 2.415-15.513 7.112-7.368 8.565-6.385 21.479 2.18 28.847 11.522 9.957 42.365 41.454 46.356 67.067 3.428 22.001-5.577 31.364-20.497 46.867-12.484 12.965-28.018 29.113-32.654 54.798-14.633 80.974 53.232 133.889 56.128 136.1 8.974 6.866 21.807 5.147 28.673-3.827 6.836-8.954 5.147-21.755-3.776-28.622-0.317-0.246-13.579-10.704-25.102-28.223-14.572-22.144-19.842-45.066-15.677-68.152 2.446-13.518 11.021-22.431 21.878-33.708 16.925-17.591 37.995-39.479 31.446-81.527zM318.196 632.5c-7.010-45.015-54.696-87.135-60.109-91.791-3.858-3.316-8.606-4.943-13.323-4.943-5.761 0-11.471 2.415-15.524 7.112-7.358 8.565-6.385 21.479 2.18 28.847 11.522 9.957 42.365 41.454 46.356 67.067 3.428 22.001-5.577 31.364-20.497 46.867-12.484 12.965-28.008 29.113-32.654 54.798-14.633 80.974 53.232 133.889 56.128 136.1 8.974 6.866 21.817 5.147 28.673-3.827 6.846-8.954 5.147-21.755-3.776-28.622-0.317-0.256-13.579-10.714-25.102-28.223-14.572-22.144-19.842-45.066-15.667-68.152 2.435-13.518 11.011-22.431 21.868-33.708 16.925-17.591 37.995-39.479 31.446-81.527zM896.292 427.992c-31.17 0-59.608-11.881-81.025-31.354v76.441c0 11.308-9.159 20.466-20.466 20.466h-736.78c-11.308 0-20.466-9.159-20.466-20.466v-224.605c0-62.432 11.103-118.458 33.012-166.543 17.734-38.937 42.508-72.685 73.606-100.304 53.14-47.174 106.424-60.058 108.665-60.59 1.525-0.358 3.101-0.542 4.666-0.542h306.828c1.269 0 2.538 0.123 3.786 0.358 2.538 0.481 63.015 12.239 123.759 57.97 35.867 26.995 64.458 60.273 84.986 98.913 25.48 47.962 38.405 104.101 38.405 166.86v55.566c0.849 2.251 1.32 4.687 1.32 7.235 0 43.941 35.754 79.695 79.705 79.695 43.941 0 79.695-35.754 79.695-79.695 0-43.951-35.754-79.705-79.695-79.705-11.297 0-20.456-9.159-20.456-20.446 0-11.297 9.159-20.456 20.456-20.456 66.494 0 120.597 54.102 120.597 120.607-0 66.494-54.102 120.597-120.597 120.597zM774.335 244.595c0-55.576-11.144-104.95-33.135-146.732-17.478-33.237-41.925-61.951-72.634-85.354-47.983-36.563-96.917-48.935-106.383-51.083h-302.029c-9.261 2.62-48.812 15.298-88.803 50.807-26.811 23.802-48.187 52.966-63.537 86.664-19.463 42.723-29.328 93.039-29.328 149.577v204.139h695.848v-208.018z"  horiz-adv-x="1024" />

    
    <glyph glyph-name="outline-search2" unicode="&#41241;" d="M760.090 632.449c-17.478 41.321-42.488 78.426-74.343 110.282s-68.961 56.865-110.282 74.343c-42.784 18.092-88.219 27.271-135.056 27.271-46.826 0-92.261-9.179-135.056-27.271-41.311-17.478-78.416-42.488-110.271-74.343s-56.865-68.961-74.343-110.282c-18.092-42.784-27.271-88.219-27.271-135.056 0-46.826 9.179-92.261 27.271-135.056 17.478-41.311 42.488-78.416 74.343-110.271s68.961-56.865 110.271-74.343c42.795-18.092 88.229-27.271 135.056-27.271 46.837 0 92.272 9.179 135.056 27.271 41.321 17.478 78.426 42.488 110.282 74.343s56.865 68.961 74.343 110.271c18.092 42.795 27.271 88.229 27.271 135.056-0 46.837-9.179 92.272-27.271 135.056zM656.798 281.014c-57.796-57.796-134.647-89.631-216.388-89.631s-158.582 31.835-216.378 89.631c-57.796 57.786-89.631 134.636-89.631 216.378s31.835 158.592 89.631 216.388 134.636 89.631 216.378 89.631 158.592-31.835 216.388-89.631c57.796-57.796 89.631-134.647 89.631-216.388s-31.835-158.592-89.631-216.378zM954.805-37.397c-3.991-4.001-9.23-5.997-14.47-5.997s-10.479 1.995-14.47 5.997l-193.855 193.845c-7.982 7.992-7.982 20.947 0 28.939 8.002 7.992 20.957 7.992 28.949 0l193.845-193.845c7.992-7.992 7.992-20.947 0-28.939z"  horiz-adv-x="1024" />

    
    <glyph glyph-name="outline-service" unicode="&#41073;" d="M986.386 449.584c-19.167 28.745-44.135 46.816-71.591 52.199-6.068 18.788-20.968 33.636-39.786 39.622-9.118 88.496-49.948 170.329-115.562 231.196-68.060 63.138-156.699 97.91-249.595 97.91-92.783 0-181.35-34.7-249.39-97.716-65.727-60.876-106.649-142.792-115.756-231.39-18.819-5.986-33.728-20.835-39.796-39.622-27.455-5.383-52.424-23.454-71.591-52.199-21.469-32.203-33.298-74.64-33.298-119.491 0-44.831 11.829-87.257 33.298-119.471 19.167-28.755 44.135-46.826 71.591-52.219 7.951-24.621 31.078-42.477 58.308-42.477 33.779 0 61.245 27.476 61.245 61.245v305.846c0 25.838-16.066 47.983-38.742 56.967 8.657 77.628 44.841 149.321 102.556 202.778 60.447 55.985 139.139 86.817 221.576 86.817 82.53 0 161.294-30.894 221.761-86.991 57.622-53.447 93.735-125.068 102.372-202.615-22.666-8.985-38.742-31.119-38.742-56.957v-305.846c0-26.371 16.752-48.894 40.165-57.5-6.109-80.309-57.111-125.938-142.045-125.938h-64.612c-8.442 23.741-31.129 40.779-57.725 40.779h-101.952c-33.769 0-61.245-27.476-61.245-61.245s27.476-61.245 61.245-61.245l101.952 0c26.596 0 49.282 17.038 57.725 40.779h64.612c107.406 0 176.234 63.281 183.029 166.441h0.010c18.164 6.263 32.49 20.845 38.394 39.162 27.455 5.393 52.424 23.464 71.591 52.219 21.469 32.214 33.298 74.64 33.298 119.471-0 44.852-11.829 87.288-33.298 119.491zM183.531 177.169c0-11.205-9.107-20.313-20.313-20.313-11.195 0-20.313 9.107-20.313 20.313 0 11.297-9.159 20.466-20.466 20.466-44.166 0-81.486 60.651-81.486 132.457s37.32 132.457 81.486 132.457c11.308 0 20.466 9.169 20.466 20.466 0 11.205 9.118 20.313 20.313 20.313 11.205 0 20.313-9.107 20.313-20.313v-305.846zM571.026-47.047h-101.952c-11.205 0-20.313 9.107-20.313 20.313s9.107 20.313 20.313 20.313h101.952c11.195 0 20.313-9.107 20.313-20.313s-9.118-20.313-20.313-20.313zM897.267 197.635c-11.308 0-20.466-9.169-20.466-20.466 0-11.205-9.118-20.313-20.313-20.313-11.205 0-20.313 9.107-20.313 20.313v305.846c0 11.205 9.107 20.313 20.313 20.313 11.195 0 20.313-9.107 20.313-20.313 0-11.297 9.159-20.466 20.466-20.466 44.166 0 81.486-60.651 81.486-132.457s-37.32-132.457-81.486-132.457z"  horiz-adv-x="1024" />

    
    <glyph glyph-name="outline-shopping" unicode="&#41094;" d="M962.725-107.352c-3.889-4.359-9.435-6.846-15.268-6.846h-857.009c-5.833 0-11.389 2.487-15.278 6.846-3.878 4.349-5.72 10.151-5.065 15.943l81.629 714.176c1.177 10.335 9.926 18.143 20.333 18.143h70.68c11.308 0 20.466-9.159 20.466-20.466s-9.159-20.466-20.466-20.466h-52.424l-76.942-673.243h811.134l-76.942 673.243h-64.11c-11.297 0-20.466 9.159-20.466 20.466s9.169 20.466 20.466 20.466h82.366c10.407 0 19.156-7.808 20.343-18.143l81.619-714.176c0.655-5.792-1.187-11.594-5.065-15.943zM640.701 620.444c0-11.308-9.159-20.466-20.466-20.466h-198.951c-11.308 0-20.466 9.159-20.466 20.466s9.159 20.466 20.466 20.466h198.951c11.308 0 20.466-9.159 20.466-20.466zM743.4 518.42c0-22.533-18.266-40.809-40.809-40.809-22.533 0-40.809 18.276-40.809 40.809 0 15.073 8.176 28.243 20.343 35.304l-0 127.934c0 89.979-73.197 163.176-163.176 163.176s-163.176-73.197-163.176-163.176v-127.934c12.167-7.061 20.343-20.231 20.343-35.304 0-22.533-18.276-40.809-40.809-40.809-22.543 0-40.809 18.276-40.809 40.809 0 15.073 8.176 28.243 20.343 35.304v127.934c0 112.543 91.565 204.109 204.109 204.109s204.109-91.565 204.109-204.109v-127.934c12.167-7.061 20.343-20.231 20.343-35.304z"  horiz-adv-x="1024" />

    
    <glyph glyph-name="outline-telephone" unicode="&#41093;" d="M1007.397 23.197c-10.335-14.792-38.561-50.603-70.241-83.623-55.214-57.534-81.517-65.191-96.504-65.191-0.48 0-0.951 0-1.411 0.020l-0.634 0.020c-20.466 0.644-74.821 2.372-162.216 43.662-106.911 50.511-227.336 142.363-357.943 272.991s-222.439 251.094-272.94 358.035c-41.27 87.405-42.987 141.74-43.631 162.196l-0.010 0.593c-0.47 14.741 5.776 40.943 65.14 97.955 32.999 31.681 68.82 59.937 83.643 70.303 11.92 8.301 31.006 17.716 54.467 15.518 17.614-1.646 32.805-9.63 41.679-21.897 11.92-16.5 125.884-189.297 138.336-208.955 12.308-19.383 10.376-48.589-5.193-78.092-8.996-17.164-39.511-70.773-52.832-94.091 14.077-20.333 53.486-72.838 136.782-156.123 108.924-108.945 165.201-142.875 165.753-143.202 9.691-5.755 12.922-18.278 7.187-27.99-5.735-9.701-18.217-12.952-27.939-7.238-2.413 1.421-60.478 36.066-173.921 149.509-113.463 113.453-148.058 171.539-149.468 173.962-3.711 6.318-3.752 14.138-0.112 20.497 0.47 0.828 47.311 82.642 58.362 103.711 10.070 19.096 9.548 32.918 6.849 37.16-11.828 18.667-125.792 191.464-136.945 206.9-3.333 4.611-20.016 10.438-39.593-3.2-11.562-8.086-45.982-34.86-78.379-65.937-52.505-50.327-52.954-67.338-52.944-67.512l0.010-0.583c0.572-18.135 2.096-66.295 39.736-146.023 48.487-102.678 137.61-219.29 264.874-346.585 127.274-127.295 243.856-216.428 346.503-264.925 79.708-37.661 127.908-39.194 146.044-39.767l0.634-0.020c0.092 0 4.386 0.133 14.946 6.819s27.387 19.924 52.515 46.156c31.057 32.417 57.8 66.806 65.886 78.379 13.801 19.72 8.076 36.168 3.476 39.389-13.239 9.272-186.25 124.433-206.829 137.007-4.498 2.75-16.121 2.811-30.985-3.588-2.116-0.91-4.253-1.932-6.359-3.046-9.988-5.265-22.357-1.452-27.632 8.536-5.275 9.988-1.452 22.357 8.536 27.632 3.057 1.615 6.185 3.108 9.303 4.447 26.089 11.225 51.053 11.552 68.462 0.91 20.967-12.809 193.14-127.315 208.965-138.397 12.635-8.853 20.793-24.157 22.368-41.985 1.135-12.871-0.685-32.754-15.794-54.334z"  horiz-adv-x="1024" />

    
    <glyph glyph-name="outline-toleft" unicode="&#41091;" d="M874.69 400.475c0-11.297-9.169-20.466-20.466-20.466h-604.774l188.084-188.084c7.992-7.992 7.992-20.947 0-28.939-4.001-3.991-9.24-5.997-14.47-5.997-5.239 0-10.479 1.995-14.48 5.997l-223.009 223.009c-3.837 3.837-5.997 9.046-5.997 14.47 0 5.434 2.159 10.632 5.997 14.47l223.019 223.030c7.992 7.992 20.957 7.992 28.949 0 7.992-8.002 7.992-20.957 0-28.949l-188.073-188.073h604.753c11.297-0 20.466-9.159 20.466-20.466z"  horiz-adv-x="1024" />

    
    <glyph glyph-name="outline-toright" unicode="&#41081;" d="M874.69 400.465c0-5.424-2.159-10.632-5.997-14.47l-223.009-223.009c-4.001-3.991-9.24-5.997-14.47-5.997-5.239 0-10.479 1.995-14.48 5.997-7.992 7.992-7.992 20.947 0 28.939l188.084 188.084h-604.774c-11.297 0-20.466 9.169-20.466 20.466 0 11.308 9.169 20.466 20.466 20.466h604.753l-188.073 188.073c-7.992 7.992-7.992 20.947 0 28.949 7.992 7.992 20.957 7.992 28.949 0l223.019-223.030c3.837-3.837 5.997-9.036 5.997-14.47z"  horiz-adv-x="1024" />

    
    <glyph glyph-name="outline-top" unicode="&#41080;" d="M764.327 436.649c-7.992-7.992-20.947-7.992-28.949 0l-187.777 187.787v-603.904c0-11.297-9.159-20.466-20.466-20.466s-20.466 9.169-20.466 20.466v603.904l-187.787-187.797c-3.991-3.991-9.23-5.986-14.47-5.986s-10.468 1.995-14.47 5.986c-7.992 8.002-7.992 20.957 0 28.949l222.723 222.723c3.837 3.837 9.046 5.997 14.47 5.997 5.434 0 10.642-2.159 14.48-5.997l222.712-222.712c7.992-7.992 7.992-20.947-0-28.949zM842.876 745.616c0-11.297-9.159-20.466-20.466-20.466h-590.55c-11.308 0-20.466 9.169-20.466 20.466 0 11.308 9.159 20.466 20.466 20.466h590.55c11.308-0 20.466-9.159 20.466-20.466z"  horiz-adv-x="1024" />

    
    <glyph glyph-name="outline-unlock" unicode="&#41079;" d="M894.42 487.155h-576.643c-8.453 27.363-26.463 85.589-31.692 102.546-16.086 52.066-10.939 107.283 14.49 155.461s68.111 83.573 120.177 99.67c52.066 16.086 107.283 10.949 155.461-14.49 48.187-25.429 83.573-68.111 99.67-120.167 4.4-14.285 27.036-87.534 27.036-87.534l39.111 12.075c0 0-22.636 73.248-27.036 87.534-19.32 62.514-61.818 113.761-119.676 144.296-57.847 30.535-124.137 36.706-186.651 17.386s-113.751-61.818-144.286-119.665-36.716-124.137-17.406-186.641c4.554-14.746 18.767-60.743 27.957-90.471h-115.081c-11.308 0-20.466-9.159-20.466-20.466v-571.332c0-11.308 9.159-20.466 20.466-20.466h734.57c11.308 0 20.466 9.159 20.466 20.466v571.332c0 11.308-9.159 20.466-20.466 20.466zM873.954-84.177h-693.638v530.4h693.638v-530.4zM588.349 221.833c0-18.061-7.972-34.137-20.405-45.332v-56.691c0-22.533-18.276-40.809-40.809-40.809-22.533 0-40.809 18.276-40.809 40.809v56.691c-12.433 11.195-20.405 27.271-20.405 45.332 0 33.82 27.404 61.214 61.214 61.214 33.82-0 61.214-27.394 61.214-61.214z"  horiz-adv-x="1024" />

    
    <glyph glyph-name="outline-upload2" unicode="&#41078;" d="M1022.955 339.752c0-100.192-81.517-181.698-181.719-181.698h-185.638c-11.297 0-20.466 9.169-20.466 20.466 0 11.308 9.169 20.466 20.466 20.466h185.638c77.628 0 140.786 63.148 140.786 140.766 0 77.423-62.841 140.449-140.203 140.766-0.42-0.031-0.829-0.051-1.248-0.061-5.935-0.153-11.666 2.302-15.667 6.703-4.001 4.41-5.884 10.346-5.157 16.25 1.33 10.806 1.944 19.76 1.944 28.192 0 60.764-23.659 117.875-66.617 160.833-42.969 42.958-100.090 66.617-160.843 66.617-47.369 0-92.742-14.449-131.208-41.782-37.617-26.739-65.952-63.701-81.926-106.884-2.425-6.549-8.012-11.4-14.828-12.894-6.815-1.484-13.927 0.604-18.86 5.536-19.289 19.34-44.944 29.983-72.245 29.983-56.323 0-102.146-45.813-102.146-102.126 0-0.317 0.041-0.982 0.092-1.627 0.061-0.921 0.123-1.832 0.153-2.763 0.338-9.466-5.864-17.928-15.002-20.456-32.357-8.944-61.542-28.55-82.182-55.218-21.305-27.517-32.572-60.508-32.572-95.413 0-86.244 70.189-156.423 156.443-156.423h169.981c11.297 0 20.466-9.159 20.466-20.466 0-11.297-9.169-20.466-20.466-20.466h-169.981c-108.829 0-197.375 88.536-197.375 197.355 0 44.053 14.224 85.712 41.127 120.474 22.809 29.451 53.898 52.086 88.71 64.816 5.065 74.323 67.149 133.245 142.751 133.245 28.387 0 55.504-8.217 78.651-23.526 19.658 39.868 48.842 74.169 85.497 100.212 45.435 32.296 99.005 49.354 154.918 49.354 71.693 0 139.088-27.916 189.782-78.6 50.695-50.695 78.61-118.090 78.61-189.782 0-3.704-0.102-7.47-0.297-11.369 90.307-10.479 160.628-87.421 160.628-180.481zM629.259 306.894c-3.991-3.991-9.23-5.997-14.47-5.997s-10.479 2.006-14.47 5.997l-67.088 67.078v-358.689c0-11.308-9.159-20.466-20.466-20.466-11.308 0-20.466 9.159-20.466 20.466v358.689l-67.088-67.078c-7.992-7.992-20.947-7.992-28.939 0s-7.992 20.957 0 28.949l102.024 102.013c7.992 7.992 20.947 7.992 28.939 0l102.024-102.013c7.992-7.992 7.992-20.957 0-28.949z"  horiz-adv-x="1024" />

    
    </font>
</defs>
</svg>
